<svg width="206" height="334" viewBox="0 0 206 334" fill="none" xmlns="http://www.w3.org/2000/svg">
<path d="M70.9175 230.359L72.3295 203.66L73.7415 230.359V299.332L72.3295 325.291L70.9175 299.332V230.359Z" fill="#C5A376"/>
<path d="M130.223 230.359L131.635 203.66L133.048 230.359V299.332L131.635 325.291L130.223 299.332V230.359Z" fill="#C5A376"/>
<path d="M83.6254 164.129L86.4497 118.801L89.2737 164.129V281.222L86.4497 325.291L83.6254 281.222V164.129Z" fill="#C5A376"/>
<path d="M160.117 330.949L205.062 332.363L160.117 333.778H44.0087L0.312134 332.363L44.0087 330.949H160.117Z" fill="#C5A376"/>
<path d="M114.691 164.129L117.515 118.801L120.339 164.129V281.222L117.515 325.291L114.691 281.222V164.129Z" fill="#C5A376"/>
<path d="M99.1576 71.0949L101.982 0L104.806 71.0949V254.757L101.982 323.877L99.1576 254.757V71.0949Z" fill="#C5A376"/>
<path d="M58.2061 268.994L59.6184 253.161L61.0304 268.994V309.898L59.6184 325.291L58.2061 309.898V268.994Z" fill="#C5A376"/>
<path d="M142.93 268.685L144.342 253.161L145.754 268.685V308.784L144.342 323.877L142.93 308.784V268.685Z" fill="#C5A376"/>
</svg>
