<svg width="140.000000" height="86.000244" viewBox="0 0 140 86.0002" fill="none" xmlns="http://www.w3.org/2000/svg" xmlns:xlink="http://www.w3.org/1999/xlink">
	<desc>
			Created with Pixso.
	</desc>
	<defs/>
	<path id="Vector" d="M69.0734 85.9993L11.3679 85.9993L11.3679 29.0278L69.0734 3.75977L69.0734 85.9993Z" fill="#233547" fill-opacity="1.000000" fill-rule="evenodd"/>
	<path id="Vector" d="M140 86.0002L50.4146 86.0002L50.4146 34.6914L140 58.249L140 86.0002Z" fill="#293E53" fill-opacity="1.000000" fill-rule="evenodd"/>
	<path id="Vector" d="M50.4146 86.0002L50.4146 34.6914L69.073 39.584L69.073 86.0002L50.4146 86.0002Z" fill="#2F475F" fill-opacity="1.000000" fill-rule="evenodd"/>
	<path id="Vector" d="M130.767 84.4734L128.181 81.2317L127.397 81.2317L127.397 85.9204L128.229 85.9204L128.229 82.5862L130.888 85.9221L131.598 85.9221L131.598 81.2317L130.765 81.2317L130.767 84.4734ZM123.191 83.5818C123.191 84.5012 122.524 85.2427 121.565 85.2427C120.607 85.2427 119.926 84.4866 119.926 83.5688C119.926 82.6511 120.595 81.908 121.552 81.908C122.509 81.908 123.191 82.6643 123.191 83.5818ZM124.079 83.5688C124.079 82.2427 123.047 81.1501 121.565 81.1501C120.084 81.1501 119.038 82.2556 119.038 83.5818C119.038 84.908 120.073 86.0002 121.552 86.0002C123.032 86.0002 124.079 84.895 124.079 83.5688ZM114.823 81.2317L114.823 85.9204L115.669 85.9204L115.669 81.2317L114.823 81.2317ZM110.057 81.9939L111.587 81.9939L111.587 81.2317L107.675 81.2317L107.675 81.9939L109.204 81.9939L109.204 85.9204L110.057 85.9204L110.057 81.9939ZM104.839 85.1699L104.294 84.6348C103.881 85.0103 103.503 85.2427 102.911 85.2427C101.987 85.2427 101.319 84.4922 101.319 83.5688C101.319 82.6455 101.987 81.908 102.911 81.908C103.462 81.908 103.874 82.1421 104.26 82.491L104.804 81.8806C104.344 81.4526 103.807 81.1489 102.917 81.1489C101.46 81.1489 100.431 82.241 100.431 83.5803C100.431 84.9343 101.477 85.999 102.882 85.999C103.785 86.0002 104.335 85.6792 104.838 85.1699L104.839 85.1699ZM97.1873 81.2317L96.3411 81.2317L96.3411 83.9297C96.3411 84.7935 95.8789 85.2358 95.1281 85.2358C94.3701 85.2358 93.9093 84.7676 93.9093 83.8945L93.9093 81.2302L93.063 81.2302L93.063 83.9282C93.063 85.2866 93.8623 85.9902 95.1157 85.9902C96.3693 85.9902 97.1887 85.2864 97.1887 83.8867L97.1873 81.2317ZM88.9425 82.7644C88.9425 83.2473 88.557 83.5557 87.9514 83.5557L86.712 83.5557L86.712 81.9822L87.9438 81.9822C88.5707 81.9822 88.9425 82.2495 88.9425 82.7644ZM89.9553 85.9199L88.6525 84.1443C89.3285 83.9612 89.8038 83.4944 89.8038 82.7175C89.8038 81.8 89.1222 81.2312 88.0126 81.2312L85.8639 81.2312L85.8639 85.9199L86.7102 85.9199L86.7102 84.2854L87.7704 84.2854L88.9543 85.9199L89.9553 85.9199ZM81.1472 81.9939L82.6771 81.9939L82.6771 81.2317L78.764 81.2317L78.764 81.9939L80.2935 81.9939L80.2935 85.9204L81.1472 85.9204L81.1472 81.9939ZM73.2283 82.4563C73.2283 82.1421 73.5175 81.8948 74.0134 81.8948C74.4545 81.8948 74.8879 82.0608 75.3219 82.3777L75.7766 81.7539C75.2871 81.3711 74.7295 81.1648 74.0271 81.1648C73.0698 81.1648 72.3815 81.7136 72.3815 82.5303C72.3815 83.3992 72.9603 83.6956 73.9862 83.937C74.8795 84.1377 75.0746 84.3193 75.0746 84.6614C75.0746 85.0217 74.7455 85.2559 74.2208 85.2559C73.6208 85.2559 73.1605 85.0349 72.6989 84.645L72.1869 85.2385C72.7371 85.7249 73.4548 85.9927 74.1982 85.989C75.2104 85.989 75.9204 85.4668 75.9204 84.5808C75.9204 83.7986 75.3896 83.4436 74.3689 83.2021C73.4474 82.9854 73.2273 82.8257 73.2273 82.4563L73.2283 82.4563ZM68.1458 84.4734L65.5632 81.2317L64.7781 81.2317L64.7781 85.9204L65.6107 85.9204L65.6107 82.5862L68.2699 85.9221L68.9789 85.9221L68.9789 81.2317L68.1458 81.2317L68.1458 84.4734ZM60.5701 83.5818C60.5701 84.5012 59.902 85.2427 58.9447 85.2427C57.9874 85.2427 57.3053 84.4866 57.3053 83.5688C57.3053 82.6511 57.9734 81.908 58.9307 81.908C59.8878 81.908 60.5691 82.6643 60.5691 83.5818L60.5701 83.5818ZM61.4583 83.5688C61.4583 82.2427 60.4238 81.1501 58.9447 81.1501C57.4656 81.1501 56.4171 82.2556 56.4171 83.5818C56.4171 84.908 57.4515 86.0002 58.9307 86.0002C60.4098 86.0002 61.4573 84.895 61.4573 83.5688L61.4583 83.5688ZM53.5873 85.1694L53.0432 84.6343C52.6295 85.0098 52.251 85.2422 51.6581 85.2422C50.7362 85.2422 50.0676 84.4917 50.0676 83.5684C50.0676 82.6453 50.7362 81.9075 51.6581 81.9075C52.2092 81.9075 52.6229 82.1416 53.0084 82.4905L53.5529 81.8801C53.0917 81.4521 52.5543 81.1484 51.6661 81.1484C50.2058 81.1484 49.1794 82.2405 49.1794 83.5798C49.1794 84.9338 50.2256 85.9985 51.6309 85.9985C52.5322 86.0002 53.0833 85.6792 53.5863 85.1699L53.5873 85.1694Z" fill="#FF913A" fill-opacity="1.000000" fill-rule="nonzero"/>
	<path id="Vector" d="M92.1555 34.7244L92.1555 76.134L94.6516 76.134L94.6516 34.0693L94.6516 32.6189L94.6516 31.5371L0 56.3904L0 56.9019L0 58.9231L0 83.553L0 85.9995L2.49561 85.9995L44.2825 85.9995L44.2825 83.553L2.49561 83.553L2.49561 58.2666L92.1555 34.7244Z" fill="#FF913A" fill-opacity="1.000000" fill-rule="evenodd"/>
	<path id="Vector" d="M131.597 74.2476L131.597 68.3923L129.185 68.3923L129.185 73.1333C128.314 73.7705 127.098 74.189 125.761 74.189C122.863 74.189 120.936 72.0771 120.936 69.1885C120.936 66.4807 122.924 64.2476 125.537 64.2476C127.34 64.2476 128.415 64.8262 129.51 65.7427L131.091 63.8892C129.63 62.6748 128.111 61.9961 125.639 61.9961C121.363 61.9961 118.322 65.3032 118.322 69.2273C118.322 73.3101 121.241 76.4172 125.679 76.4172C128.192 76.4172 130.198 75.4219 131.598 74.2471L131.597 74.2476ZM84.0652 69.228C84.0652 71.9761 82.1179 73.9482 79.1404 73.9482L76.3446 73.9482L76.3446 64.4673L79.1414 64.4673C82.1179 64.4673 84.0652 66.4792 84.0652 69.228ZM86.6777 69.187C86.6777 65.2441 83.5988 62.2346 79.1404 62.2346L73.8495 62.2346L73.8495 76.1799L79.1404 76.1799C83.5988 76.179 86.6802 73.1318 86.6802 69.187L86.6777 69.187ZM59.0336 76.179L68.9834 76.179L68.9834 73.9482L61.5253 73.9482L61.5253 62.2346L59.0354 62.2346L59.0336 76.179ZM44.6376 62.2339L42.1476 62.2339L42.1476 70.261C42.1476 72.8313 40.7889 74.147 38.58 74.147C36.3508 74.147 34.9926 72.752 34.9926 70.1628L34.9926 62.2346L32.4984 62.2346L32.4984 70.262C32.4984 74.3066 34.8497 76.3979 38.5382 76.3979C42.2462 76.3979 44.6376 74.3066 44.6376 70.1448L44.6376 62.2339ZM22.403 74.0061L18.2688 74.0061L18.2688 70.1816L22.2207 70.1816C24.1863 70.1816 25.1385 70.8794 25.1385 72.075C25.1367 73.3508 24.1055 74.0068 22.403 74.0068L22.403 74.0061ZM52.9703 62.2339L52.9703 47.5391L50.4771 48.1953L50.4771 76.1782L52.9703 76.1782L52.9703 62.2329L52.9703 62.2339ZM52.9703 39.9307L52.9703 3.77734L110.578 29.0593L110.578 71.8777L102.979 62.2346L100.669 62.2346L100.669 76.1799L103.123 76.1799L103.123 66.259L110.945 76.179L113.032 76.179L113.032 70.5354L113.074 70.5354L113.074 27.4705L52.9703 1.09399L50.4771 0L50.4771 40.5859L52.9703 39.9307ZM22.1803 62.2339L15.8169 62.2339L15.8169 64.4041L21.8561 64.4041L21.9308 64.4041L22.0042 64.4041L22.0764 64.4072L22.1483 64.4102L22.2184 64.4148L22.2878 64.4189L22.356 64.4263L22.4232 64.4336L22.4889 64.4409L22.5538 64.4497L22.6177 64.46L22.6802 64.4719L22.7422 64.4834L22.8027 64.4956L22.8624 64.5085L22.9207 64.5232L22.978 64.5393L23.0344 64.5537L23.0894 64.5718L23.1434 64.5894L23.1964 64.6082L23.2482 64.6277L23.2988 64.6497L23.3458 64.6714L23.3928 64.6921L23.4398 64.7153L23.4868 64.7402L23.5338 64.7656L23.577 64.792L23.6202 64.8184L23.6616 64.845L23.7019 64.8743L23.7405 64.9019L23.7781 64.9329L23.8147 64.9624L23.8495 64.9946L23.8843 65.0271L23.9176 65.0608L23.9496 65.0945L23.9806 65.1296L24.0101 65.165L24.0378 65.2002L24.0656 65.2385L24.0909 65.2764L24.1154 65.3147L24.1394 65.3545L24.161 65.3955L24.1826 65.4365L24.2023 65.479L24.2211 65.5203L24.238 65.5664L24.254 65.6125L24.2686 65.6565L24.2821 65.7026L24.2948 65.7488L24.3052 65.7949L24.3151 65.8411L24.3235 65.8896L24.3306 65.9358L24.3357 65.9856L24.3413 66.0383L24.3441 66.0881L24.3441 66.1414L24.3441 66.1938C24.3441 67.489 23.2703 68.106 21.6664 68.106L15.8169 68.106L15.8169 76.1731L22.3828 76.1731C25.5446 76.1731 27.6318 74.8381 27.6318 72.3298C27.6318 70.4177 26.4766 69.4807 24.813 68.9224C25.8673 68.385 26.8397 67.5071 26.8397 65.7944C26.8412 63.6094 25.0381 62.2346 22.1803 62.2346L22.1803 62.2339Z" fill="#FFFFFF" fill-opacity="1.000000" fill-rule="evenodd"/>
</svg>
