<svg width="75.000000" height="86.000000" viewBox="0 0 75 86" fill="none" xmlns="http://www.w3.org/2000/svg" xmlns:xlink="http://www.w3.org/1999/xlink">
	<desc>
			Created with Pixso.
	</desc>
	<defs/>
	<mask id="mask25_87" mask-type="alpha" maskUnits="userSpaceOnUse" x="8.760986" y="0.000000" width="57.476807" height="60.951172">
		<mask id="mask25_89" mask-type="alpha" maskUnits="userSpaceOnUse" x="8.760986" y="0.000000" width="57.476807" height="60.951172">
			<path id="Vector" d="M8.76099 60.9512L66.2378 60.9512L66.2378 0L8.76099 0L8.76099 60.9512Z" fill="#000000" fill-opacity="1.000000" fill-rule="nonzero"/>
		</mask>
		<g mask="url(#mask25_89)">
			<path id="Vector" d="M8.76123 60.9507L66.2373 60.9507L66.2373 4.34863L50.0942 4.34863L50.0942 5.9939L64.5637 5.9939L64.5637 59.3052L56.9512 59.3052L56.9512 33.7847L51.5427 30.1086L51.5427 59.3052L48.228 59.3052L48.228 27.8606L44.4189 30.4426L44.4189 59.3035L39.6404 59.3035L39.6228 13.8979L41.7556 11.7407L41.7556 1.59668L44.873 4.32202L46.0435 5.34839L46.0435 9.52051L47.2637 10.4998L47.2637 4.80176L46.0933 3.77808L44.8757 2.70972L42.2114 0.393066L41.761 -0.000488281L41.7539 0.00585938L35.429 5.53906L35.429 59.3052L28.8599 59.3052L28.8777 26.1477L33.6604 22.5269L33.6604 17.4922L28.1382 13.3826L27.3384 12.7842L27.1492 12.6453L25.6382 13.9719L24.4182 15.0403L23.2451 16.0649L23.2451 59.3052L21.8579 59.3052L21.8579 28.4438L18.0481 31.0337L18.0481 59.3052L10.4338 59.3052L10.4338 5.9939L32.603 5.9939L32.603 4.34863L8.76123 4.34863L8.76123 60.9507ZM27.1873 59.3052L24.4607 59.3052L24.4607 16.6018L25.6338 15.5754L27.3276 14.093L27.1873 59.3052ZM51.2966 15.8513L44.4189 10.3218L44.4189 27.8875L48.2288 25.2983L51.2966 27.3835L51.2966 15.8513ZM44.4189 27.8838L44.4189 28.1384L44.4243 28.1384L44.4189 27.8875L44.4189 27.8838Z" fill="#000000" fill-opacity="1.000000" fill-rule="nonzero"/>
		</g>
	</mask>
	<g mask="url(#mask25_87)">
		<mask id="mask25_94" mask-type="alpha" maskUnits="userSpaceOnUse" x="8.746338" y="0.000000" width="57.505371" height="60.964355">
			<path id="Vector" d="M8.74634 0L66.2517 0L66.2517 60.9644L8.74634 60.9644L8.74634 0Z" fill="#000000" fill-opacity="1.000000" fill-rule="evenodd"/>
		</mask>
		<g mask="url(#mask25_94)">
			<rect id="Rectangle" width="57.160465" height="61.502167" transform="matrix(1 0 0 -1 8.64893 61.0469)" fill="#F8F8F8" fill-opacity="1.000000"/>
		</g>
	</g>
	<path id="Vector" d="M4.44336 68.7549L0 68.7549L0 78.5107L4.58398 78.5107C6.79321 78.5107 8.24976 77.5759 8.24976 75.8203C8.24976 74.4849 7.44287 73.8269 6.28296 73.438C7.01709 73.0613 7.69971 72.4478 7.69971 71.2505C7.69971 69.7163 6.43945 68.7576 4.44165 68.7576L4.44336 68.7549ZM4.08789 72.8662L1.70972 72.8662L1.70972 70.2737L4.21777 70.2737C5.33301 70.2737 5.95508 70.7341 5.95508 71.5291C5.95508 72.4346 5.2085 72.8645 4.08887 72.8645L4.08789 72.8662ZM4.59814 76.9919L1.70972 76.9919L1.70972 74.3149L4.47192 74.3149C5.84399 74.3149 6.50879 74.8037 6.50879 75.6387C6.50879 76.5291 5.78613 76.9919 4.59814 76.9919ZM19.2871 68.7549L17.5471 68.7549L17.5471 74.3718C17.5471 76.1694 16.5981 77.0898 15.0588 77.0898C13.502 77.0898 12.5537 76.1106 12.5537 74.3022L12.5537 68.7549L10.8127 68.7549L10.8127 74.3718C10.8127 77.2002 12.4541 78.6641 15.0312 78.6641C17.6084 78.6641 19.2891 77.2002 19.2891 74.2871L19.2891 68.7549L19.2871 68.7549ZM22.5291 68.7549L22.5291 78.5107L24.27 78.5107L24.27 68.7549L22.5291 68.7549ZM27.6685 78.5107L34.6172 78.5107L34.6172 76.9502L29.4067 76.9502L29.4067 68.7549L27.6685 68.7549L27.6685 78.5107ZM46.1355 73.6194C46.1355 70.8596 43.9839 68.7549 40.8726 68.7549L37.1765 68.7549L37.1765 78.5107L40.8796 78.5107C43.99 78.5107 46.1426 76.374 46.1426 73.6194L46.1355 73.6194ZM44.3101 73.6472C44.3101 75.5701 42.9529 76.9502 40.8726 76.9502L38.9175 76.9502L38.9175 70.3157L40.8726 70.3157C42.9529 70.3157 44.3101 71.7231 44.3101 73.6472ZM49.0938 68.7505L49.0938 78.5063L50.8374 78.5063L50.8374 68.7549L49.0938 68.7505ZM61.1533 75.4971L55.8469 68.7505L54.2332 68.7505L54.2332 78.5063L55.9448 78.5063L55.9448 71.562L61.4075 78.5063L62.864 78.5063L62.864 68.7549L61.1533 68.7549L61.1533 75.5017L61.1533 75.4971ZM74.9939 77.1541L74.9939 73.0586L70.7788 73.0586L70.7788 74.5491L73.3169 74.5491L73.3169 76.3811C72.6155 76.8716 71.7788 77.1299 70.9236 77.1201C68.9009 77.1201 67.5571 75.6414 67.5571 73.6221C67.5571 71.7258 68.9419 70.165 70.769 70.165C72.0291 70.165 72.7783 70.5684 73.5435 71.2104L74.6462 69.9131C73.6279 69.0637 72.5667 68.5911 70.8384 68.5911C67.8533 68.5911 65.73 70.9058 65.73 73.6497C65.73 76.5068 67.7688 78.6799 70.8684 78.6799C72.3821 78.6812 73.8464 78.1428 75 77.1611L74.9939 77.1541Z" fill="#FFFFFF" fill-opacity="1.000000" fill-rule="nonzero"/>
	<path id="Vector" d="M13.3591 85.4631L13.0107 85.1184C12.7522 85.3589 12.5095 85.5093 12.1345 85.5093C11.5515 85.5093 11.1277 85.0276 11.1277 84.4348C11.1277 83.8418 11.5515 83.3665 12.1345 83.3665C12.4846 83.3665 12.7458 83.5159 12.9902 83.7395L13.3342 83.3494C13.178 83.1931 12.991 83.0708 12.7854 82.99C12.5798 82.9094 12.3596 82.8721 12.1389 82.8804C11.7266 82.8777 11.3298 83.0391 11.0361 83.3293C10.7427 83.6196 10.5762 84.0149 10.5735 84.428C10.5708 84.8413 10.7319 85.2388 11.0217 85.5327C11.3115 85.8269 11.7061 85.9937 12.1184 85.9963C12.3523 86.0039 12.5847 85.96 12.7998 85.8677C13.0146 85.7754 13.2068 85.637 13.3628 85.4622L13.3591 85.4631ZM18.4939 84.4348C18.4939 83.5845 17.8416 82.8838 16.9023 82.8838C15.9629 82.8838 15.3027 83.5962 15.3027 84.4436C15.3027 85.2913 15.9541 85.9954 16.896 85.9954C17.8381 85.9954 18.4958 85.2832 18.4958 84.4348L18.4939 84.4348ZM17.9304 84.4436C17.9304 85.0322 17.5076 85.512 16.9023 85.512C16.2971 85.512 15.8635 85.0269 15.8635 84.4375C15.8635 83.8481 16.2874 83.3691 16.8953 83.3691C17.5032 83.3691 17.9304 83.8533 17.9304 84.4429L17.9304 84.4436ZM22.8813 85.0161L21.2454 82.9363L20.7468 82.9363L20.7468 85.9429L21.28 85.9429L21.28 83.8062L22.9641 85.9429L23.4084 85.9429L23.4084 82.9363L22.8806 82.9363L22.8806 85.0178L22.8813 85.0161ZM26.2522 83.7217C26.2522 83.5195 26.437 83.3655 26.748 83.3655C27.0508 83.3752 27.3418 83.4836 27.5771 83.6743L27.866 83.2756C27.553 83.0222 27.1604 82.8879 26.7578 82.8972C26.1509 82.8972 25.7146 83.2488 25.7146 83.7732C25.7146 84.3315 26.0833 84.522 26.7312 84.676C27.2981 84.8052 27.4199 84.9209 27.4199 85.1399C27.4199 85.3589 27.2112 85.5217 26.8806 85.5217C26.502 85.5217 26.2078 85.3804 25.9146 85.1309L25.5928 85.5085C25.9431 85.8208 26.3962 85.9927 26.8655 85.991C27.5078 85.991 27.9558 85.6562 27.9558 85.0891C27.9558 84.5862 27.6226 84.3574 26.9783 84.1987C26.3953 84.0608 26.2559 83.9575 26.2559 83.7217L26.2522 83.7217ZM31.4199 83.425L32.3887 83.425L32.3887 82.9363L29.9082 82.9363L29.9082 83.425L30.8796 83.425L30.8796 85.9429L31.4199 85.9429L31.4199 83.425ZM37.1494 85.9429L36.3281 84.8042C36.7529 84.6895 37.0552 84.3894 37.0552 83.8889C37.0552 83.3015 36.6223 82.9363 35.9194 82.9363L34.5596 82.9363L34.5596 85.9429L35.0981 85.9429L35.0981 84.895L35.7673 84.895L36.5176 85.9429L37.1494 85.9429ZM36.5068 83.9192C36.5068 84.229 36.2632 84.4268 35.8794 84.4268L35.0981 84.4268L35.0981 83.4163L35.874 83.4163C36.2729 83.4163 36.5068 83.5889 36.5068 83.9192ZM41.8806 82.9399L41.3474 82.9399L41.3474 84.6707C41.3474 85.2253 41.0559 85.5076 40.5779 85.5076C40.0999 85.5076 39.8057 85.2075 39.8057 84.6501L39.8057 82.9399L39.2725 82.9399L39.2725 84.6707C39.2725 85.5422 39.7781 85.9937 40.5715 85.9937C41.3652 85.9937 41.8843 85.5422 41.8843 84.6448L41.8843 82.9399L41.8806 82.9399ZM46.8804 85.4666L46.5374 85.1221C46.2708 85.3625 46.0344 85.5129 45.6584 85.5129C45.0728 85.5129 44.6499 85.0312 44.6499 84.4382C44.6499 83.8455 45.0728 83.3699 45.6584 83.3699C46.0068 83.3699 46.2681 83.5195 46.5125 83.7429L46.8582 83.353C46.7017 83.197 46.5149 83.0747 46.3093 82.9941C46.1038 82.9133 45.8835 82.8757 45.6628 82.8838C45.2505 82.8809 44.8538 83.0422 44.5601 83.3323C44.2664 83.6223 44.0996 84.0176 44.0967 84.4307C44.0938 84.844 44.2546 85.2415 44.5442 85.5356C44.834 85.8301 45.2283 85.9971 45.6406 86C46.2139 86 46.5613 85.7935 46.8848 85.4658L46.8804 85.4666ZM50.3374 83.4287L51.3062 83.4287L51.3062 82.9399L48.8284 82.9399L48.8284 83.4287L49.7961 83.4287L49.7961 85.9465L50.3374 85.9465L50.3374 83.4287ZM53.5066 82.9399L53.5066 85.9465L54.0398 85.9465L54.0398 82.9399L53.5066 82.9399ZM59.5203 84.4382C59.5203 83.5881 58.8679 82.8875 57.9294 82.8875C56.991 82.8875 56.3298 83.5996 56.3298 84.4473C56.3298 85.2947 56.9812 85.999 57.9233 85.999C58.8652 85.999 59.5229 85.2869 59.5229 84.4382L59.5203 84.4382ZM58.9578 84.4473C58.9578 85.0356 58.5347 85.5156 57.9294 85.5156C57.3242 85.5156 56.8906 85.0303 56.8906 84.4409C56.8906 83.8516 57.3145 83.3726 57.9224 83.3726C58.5303 83.3726 58.9578 83.8569 58.9578 84.4463L58.9578 84.4473ZM63.9087 85.0198L62.2725 82.9399L61.7766 82.9399L61.7766 85.9465L62.3018 85.9465L62.3018 83.8098L63.9905 85.9465L64.4348 85.9465L64.4348 82.9399L63.9077 82.9399L63.9077 85.0178L63.9087 85.0198Z" fill="#FFFFFF" fill-opacity="1.000000" fill-rule="nonzero"/>
</svg>
