<svg width="78.000000" height="86.000000" viewBox="0 0 78 86" fill="none" xmlns="http://www.w3.org/2000/svg" xmlns:xlink="http://www.w3.org/1999/xlink">
	<desc>
			Created with Pixso.
	</desc>
	<defs/>
	<path id="Vector" d="M77.9988 77.0176L77.9988 72.2898L73.2878 72.2898L73.2878 74.3586L75.6907 74.3586L75.6907 75.9155C75.0874 76.3494 74.3118 76.5681 73.4435 76.5681C71.5221 76.5681 70.1576 75.1055 70.1576 73.116L70.1576 73.0852C70.1576 71.2351 71.5376 69.6963 73.2727 69.6963C74.5294 69.6963 75.2728 70.0994 76.1094 70.7996L77.6132 68.981C76.4827 68.0166 75.3051 67.488 73.3507 67.488C70.0648 67.488 67.662 70.0232 67.662 73.1165L67.662 73.1472C67.662 76.3655 69.9868 78.7456 73.3658 78.7456C75.3505 78.7456 76.8849 77.968 78 77.0193L77.9988 77.0176ZM65.3757 78.5593L65.3757 67.6733L63.0203 67.6733L63.0203 74.3738L57.9352 67.6733L55.7354 67.6733L55.7354 78.5576L58.0908 78.5576L58.0908 71.6387L63.3462 78.5576L65.3757 78.5593ZM45.677 73.1729C45.677 75.1011 44.3595 76.4241 42.4062 76.4241L40.5618 76.4241L40.5618 69.863L42.4062 69.863C44.3595 69.863 45.677 71.2139 45.677 73.1423L45.677 73.1729ZM48.1726 73.1421L48.1726 73.1113C48.1726 70.0488 45.8159 67.7004 42.4062 67.7004L38.1744 67.7004L38.1744 78.5847L42.4062 78.5847C45.8159 78.5833 48.1726 76.2029 48.1726 73.1404L48.1726 73.1421ZM36.2137 78.5833L36.2137 76.406L30.804 76.406L30.804 67.6987L28.4163 67.6987L28.4163 78.5833L36.2137 78.5833ZM20.6383 73.8401L20.6383 67.6987L18.2505 67.6987L18.2505 73.9348C18.2505 75.6589 17.3683 76.5449 15.9105 76.5449C14.4529 76.5449 13.5702 75.627 13.5702 73.8557L13.5702 67.6987L11.1825 67.6987L11.1825 73.918C11.1825 77.1211 12.965 78.7544 15.8783 78.7544C18.7917 78.7544 20.6383 77.1362 20.6383 73.8401ZM6.84961 75.3013C6.84961 76.1111 6.21289 76.4839 5.16028 76.4839L2.3241 76.4839L2.3241 74.0889L5.08301 74.0889C6.30762 74.0889 6.84961 74.5396 6.84961 75.27L6.84961 75.3013ZM6.24622 70.9502C6.24622 71.7573 5.57935 72.0999 4.52515 72.0999L2.3241 72.0999L2.3241 69.7981L4.68079 69.7981C5.6875 69.7981 6.24622 70.2029 6.24622 70.9194L6.24622 70.9502ZM9.2218 75.5986L9.2218 75.5681C9.2218 74.1057 8.44653 73.375 7.19226 72.8938C7.96777 72.457 8.61804 71.7761 8.61804 70.5454L8.61804 70.5134C8.61804 68.8044 7.25464 67.7 5.0365 67.7L0 67.7L0 78.5845L5.16101 78.5845C7.61011 78.5833 9.2218 77.5872 9.2218 75.5974L9.2218 75.5986Z" fill="#FFFFFF" fill-opacity="1.000000" fill-rule="nonzero"/>
	<mask id="mask25_173" mask-type="alpha" maskUnits="userSpaceOnUse" x="1.620117" y="0.000000" width="72.956787" height="78.583496">
		<path id="Vector" d="M3.81763 60.6423L14.9755 60.6423L14.9755 43.9866L23.5314 39.6755L23.5314 23.0259L31.625 25.7095L31.625 28.5771L25.7305 26.5952L25.7305 78.5579L23.5314 78.5579L23.5314 42.8027L17.1757 46.0068L17.1757 62.845L1.62012 62.845L1.62012 60.6423L3.81763 60.6423ZM53.7416 20.2056L67.1721 24.3889L67.1721 60.6423L74.5769 60.6423L74.5769 62.8467L64.9758 62.8467L64.9758 26.0125L53.7416 22.5132L53.7416 20.2056ZM50.4685 19.1865L50.4685 3.57056L34.9197 8.8103L34.9197 13.22L32.7222 12.5347L32.7222 6.60596L52.6683 0L52.6683 39.6785L61.2244 43.9895L61.2244 62.8479L59.0233 62.8479L59.0233 46.0068L52.6687 42.8027L52.6687 78.5835L50.4689 78.5835L50.4689 19.1858L50.4685 19.1865ZM30.8171 15.3728L11.2228 9.27002L11.2228 59.2795L9.026 59.2795L9.026 6.27783L32.7222 13.6592L34.9197 14.3428L49.3951 18.8508L49.3951 21.1584L38.332 17.7136L30.8171 15.3728ZM34.9197 52.3396L41.2761 52.3396L41.2761 31.8362L36.0195 30.1016L36.0195 27.1912L43.4749 29.6294L43.4749 54.5435L32.7222 54.5435L32.7222 17.092L34.9197 17.7773L34.9197 52.3396Z" fill="#000000" fill-opacity="1.000000" fill-rule="nonzero"/>
	</mask>
	<g mask="url(#mask25_173)">
		<path id="Vector" d="M1.62012 0L74.578 0L74.578 78.584L1.62012 78.584L1.62012 0Z" fill="#FFFFFF" fill-opacity="1.000000" fill-rule="evenodd"/>
	</g>
	<path id="Vector" d="M66.5807 85.9365L66.5807 82.4119L65.8167 82.4119L65.8167 84.583L64.1703 82.4119L63.4575 82.4119L63.4575 85.9365L64.22 85.9365L64.22 83.6956L65.9225 85.9365L66.5807 85.9365ZM60.1968 84.4597L59.2627 84.4597L59.7295 83.3181L60.1968 84.4597ZM61.6023 85.9365L60.0964 82.3867L59.3833 82.3867L57.8771 85.9365L58.6654 85.9365L58.9862 85.1462L60.4722 85.1462L60.7941 85.9365L61.6023 85.9365ZM56.1217 85.439L56.1217 83.9077L54.5951 83.9077L54.5951 84.5779L55.3739 84.5779L55.3739 85.0813C55.1781 85.2217 54.9263 85.2932 54.6461 85.2932C54.0237 85.2932 53.5819 84.8181 53.5819 84.1755L53.5819 84.165C53.5819 83.5664 54.0284 83.0669 54.59 83.0669C54.9974 83.0669 55.2378 83.1982 55.5093 83.4243L55.9955 82.8367C55.6299 82.5242 55.2482 82.3528 54.6155 82.3528C53.5509 82.3528 52.7729 83.175 52.7729 84.1768L52.7729 84.1868C52.7729 85.229 53.5254 86 54.6206 86C55.1721 86.0007 55.7052 85.8015 56.1217 85.439ZM50.1198 84.1846C50.1198 84.7886 49.6871 85.2832 49.0643 85.2832C48.4417 85.2832 48.0002 84.7786 48.0002 84.1746L48.0002 84.1643C48.0002 83.5601 48.4329 83.0662 49.0544 83.0662C49.676 83.0662 50.1198 83.5691 50.1198 84.1746L50.1198 84.1846ZM50.9283 84.1746L50.9283 84.1643C50.9283 83.1616 50.1492 82.3508 49.0643 82.3508C47.9796 82.3508 47.194 83.1731 47.194 84.1746L47.194 84.1846C47.194 85.1858 47.9716 85.998 49.0552 85.998C50.1389 85.998 50.9283 85.1758 50.9283 84.1746ZM45.6527 85.9365L45.6527 85.2317L43.9017 85.2317L43.9017 82.4119L43.1289 82.4119L43.1289 85.9365L45.6527 85.9365ZM41.1416 84.8948L41.1416 84.8845C41.1416 84.27 40.7408 84.0134 40.0272 83.8269C39.42 83.6714 39.2684 83.5947 39.2684 83.3635L39.2684 83.3555C39.2684 83.1831 39.4252 83.0461 39.7205 83.0461C40.0157 83.0461 40.3237 83.178 40.6357 83.3936L41.0369 82.8115C40.6677 82.5132 40.2059 82.354 39.7319 82.3621C39.0137 82.3621 38.502 82.7859 38.502 83.4243L38.502 83.4346C38.502 84.1343 38.9592 84.3311 39.6671 84.5125C40.2542 84.6628 40.3746 84.7639 40.3746 84.9607L40.3746 84.9709C40.3746 85.1765 40.1837 85.3044 39.868 85.3044C39.4658 85.3044 39.1346 85.1372 38.8179 84.8752L38.3622 85.4233C38.7732 85.7891 39.304 85.9902 39.8534 85.988C40.6095 85.9902 41.1416 85.5945 41.1416 84.8948ZM34.2856 84.1846C34.2856 84.8091 33.859 85.2368 33.2267 85.2368L32.6298 85.2368L32.6298 83.1121L33.2267 83.1121C33.859 83.1121 34.2856 83.5513 34.2856 84.1746L34.2856 84.1846ZM35.0942 84.1746L35.0942 84.1643C35.0942 83.1731 34.3318 82.4119 33.2267 82.4119L31.8564 82.4119L31.8564 85.9365L33.2286 85.9365C34.3318 85.9365 35.0942 85.1655 35.0942 84.1746ZM29.7 85.9365L29.7 82.4119L28.9371 82.4119L28.9371 84.583L27.29 82.4119L26.5769 82.4119L26.5769 85.9365L27.3409 85.9365L27.3409 83.6956L29.0417 85.9365L29.7 85.9365ZM23.3164 84.4597L22.3821 84.4597L22.8492 83.3181L23.3164 84.4597ZM24.7216 85.9365L23.2157 82.3867L22.5031 82.3867L20.9963 85.9365L21.7847 85.9365L22.1055 85.1462L23.5914 85.1462L23.9133 85.9365L24.7216 85.9365ZM18.5044 83.6255C18.5044 83.9229 18.2894 84.1233 17.9126 84.1233L17.1299 84.1233L17.1299 83.1121L17.8975 83.1121C18.2739 83.1121 18.5044 83.283 18.5044 83.615L18.5044 83.6255ZM19.3947 85.9365L18.5354 84.6777C18.9819 84.5115 19.2887 84.1538 19.2887 83.5842L19.2887 83.5742C19.2887 82.8501 18.7913 82.4119 17.9635 82.4119L16.3555 82.4119L16.3555 85.9365L17.1287 85.9365L17.1287 84.8091L17.7355 84.8091L18.4893 85.9365L19.3947 85.9365ZM13.6375 84.8745C13.6375 85.1362 13.4313 85.2573 13.0898 85.2573L12.1721 85.2573L12.1721 84.481L13.0656 84.481C13.4615 84.481 13.6375 84.6265 13.6375 84.864L13.6375 84.8745ZM13.4413 83.4646C13.4413 83.7263 13.226 83.8374 12.884 83.8374L12.1714 83.8374L12.1714 83.0918L12.933 83.0918C13.2589 83.0918 13.4396 83.2219 13.4396 83.4541L13.4413 83.4646ZM14.4062 84.9702L14.4062 84.96C14.4062 84.4861 14.1543 84.2498 13.748 84.094C13.9988 83.9524 14.2104 83.7312 14.2104 83.3357L14.2104 83.3257C14.2104 82.7712 13.7687 82.4136 13.0504 82.4136L11.4188 82.4136L11.4188 85.9382L13.0902 85.9382C13.881 85.9368 14.4055 85.615 14.4055 84.9702L14.4062 84.9702Z" fill="#FFFFFF" fill-opacity="1.000000" fill-rule="nonzero"/>
</svg>
