<svg width="98.000000" height="85.999512" viewBox="0 0 98 85.9995" fill="none" xmlns="http://www.w3.org/2000/svg" xmlns:xlink="http://www.w3.org/1999/xlink">
	<desc>
			Created with Pixso.
	</desc>
	<defs/>
	<mask id="mask25_180" mask-type="alpha" maskUnits="userSpaceOnUse" x="8.243774" y="0.000000" width="81.508789" height="61.960938">
		<mask id="mask25_182" mask-type="alpha" maskUnits="userSpaceOnUse" x="8.243774" y="0.000000" width="81.508789" height="61.960938">
			<path id="Vector" d="M8.24377 61.9609L89.7526 61.9609L89.7526 0L8.24377 0L8.24377 61.9609Z" fill="#000000" fill-opacity="1.000000" fill-rule="nonzero"/>
		</mask>
		<g mask="url(#mask25_182)">
			<path id="Vector" d="M53.6532 52.1006L49.9708 52.1006L49.9708 54.929L53.6532 54.929L53.6532 52.1006ZM60.6417 42.3945L69.7961 47.8926L69.7961 22.6321L65.4181 20.7908L65.4181 39.803L60.6417 42.3926L60.6417 42.3945ZM71.9723 49.2051L73.3658 50.0415L73.4297 24.1643L71.8958 23.5183L71.9712 49.2051L71.9723 49.2051ZM75.1995 51.1436L76.6105 51.99L76.6766 25.5295L75.1217 24.8745L75.1995 51.1436ZM78.4209 53.0793L79.8632 53.9448L79.9421 26.9028L78.3431 26.2297L78.4209 53.0803L78.4209 53.0793ZM48.9977 37.4771L8.2439 61.969L48.9977 43.4504L89.7584 61.969L48.9977 37.4771ZM50.2588 36.1599L50.2588 -0.00292969L37.0074 7.69849L37.0074 17.9634L38.3674 18.7207L38.79 41.531L39.6796 40.9976L40.0361 19.6487L41.6016 20.5195L41.986 39.6123L42.9545 39.031L43.2784 21.4485L44.8403 22.3174L45.1666 37.7002L48.9988 35.397L50.26 36.1545L50.2588 36.1599ZM36.4187 42.9631L36.8008 17.8562L35.1344 16.9219L35.5896 43.4558L36.4211 42.9561L36.4187 42.9631ZM33.3461 44.8101L33.3461 17.2612L18.0276 25.5776L18.0276 54.0063L33.3461 44.803L33.3461 44.8101ZM51.8103 0.906006L52.55 37.5352L52.8519 37.7166L53.4941 1.88574L51.8115 0.904297L51.8103 0.906006ZM55.0468 2.78735L55.8446 39.5171L56.0211 39.6213L56.7295 3.7644L55.0468 2.78735ZM58.2809 4.66602L59.1519 41.5027L59.1774 41.519L59.9659 5.64478L58.2809 4.66602ZM61.5173 6.54736L62.386 40.3271L63.1989 7.52612L61.5127 6.54736L61.5173 6.54736ZM44.3422 56.3069L48.0245 56.3069L48.0245 59.136L44.3433 59.136L44.3433 56.3069L44.3422 56.3069ZM53.6521 56.3069L49.9697 56.3069L49.9697 59.136L53.6521 59.136L53.6521 56.3069ZM44.3422 52.105L48.0245 52.105L48.0245 54.9333L44.3433 54.9333L44.3433 52.105L44.3422 52.105Z" fill="#000000" fill-opacity="1.000000" fill-rule="nonzero"/>
		</g>
	</mask>
	<g mask="url(#mask25_180)">
		<mask id="mask25_187" mask-type="alpha" maskUnits="userSpaceOnUse" x="8.243774" y="-0.002930" width="81.528442" height="61.970947">
			<path id="Vector" d="M8.24377 -0.00292969L89.7722 -0.00292969L89.7722 61.968L8.24377 61.968L8.24377 -0.00292969Z" fill="#000000" fill-opacity="1.000000" fill-rule="evenodd"/>
		</mask>
		<g mask="url(#mask25_187)">
			<rect id="Rectangle" width="81.010529" height="62.518017" transform="matrix(1 0 0 -1 8.11023 62.0596)" fill="#FFFFFF" fill-opacity="1.000000"/>
		</g>
	</g>
	<path id="Vector" d="M5.8064 68.4285L0 68.4285L0 78.3677L5.98865 78.3677C8.87329 78.3677 10.7778 77.416 10.7778 75.6272C10.7778 74.2666 9.72339 73.5972 8.20789 73.198C9.16833 72.8162 10.0579 72.1902 10.0579 70.9692C10.0579 69.4082 8.41113 68.4294 5.80286 68.4294L5.8064 68.4285ZM5.34192 72.6157L2.23425 72.6157L2.23425 69.9768L5.50916 69.9768C6.97119 69.9768 7.78406 70.4441 7.78406 71.2532C7.78406 72.1785 6.80273 72.6138 5.34534 72.6138L5.34192 72.6157ZM6.00964 76.8201L2.23425 76.8201L2.23425 74.0942L5.84119 74.0942C7.6366 74.0942 8.50513 74.5903 8.50513 75.4431C8.50513 76.3501 7.56335 76.8201 6.00964 76.8201ZM25.2054 68.4285L22.9305 68.4285L22.9305 74.1504C22.9305 75.9819 21.6914 76.9199 19.679 76.9199C17.6444 76.9199 16.4053 75.9221 16.4053 74.0789L16.4053 68.4285L14.1316 68.4285L14.1316 74.1504C14.1316 77.0332 16.2753 78.5247 19.6418 78.5247C23.0258 78.5247 25.209 77.0332 25.209 74.0652L25.209 68.4285L25.2054 68.4285ZM29.4395 68.4285L29.4395 78.3677L31.7145 78.3677L31.7145 68.4285L29.4395 68.4285ZM36.1552 78.3677L45.2397 78.3677L45.2397 76.7773L38.4336 76.7773L38.4336 68.4321L36.161 68.4321L36.161 78.3713L36.1552 78.3677ZM60.2911 73.384C60.2911 70.572 57.4796 68.4275 53.4117 68.4275L48.5842 68.4275L48.5842 78.3667L53.4117 78.3667C57.4762 78.3667 60.2911 76.1897 60.2911 73.384ZM57.9034 73.4121C57.9034 75.3713 56.1302 76.7766 53.4117 76.7766L50.8569 76.7766L50.8569 70.0168L53.4117 70.0168C56.1302 70.0168 57.9034 71.4526 57.9034 73.4121ZM64.157 68.4231L64.157 78.3621L66.4296 78.3621L66.4296 68.4285L64.157 68.4231ZM79.9143 75.2952L72.978 68.4231L70.8702 68.4231L70.8702 78.3621L73.1104 78.3621L73.1104 71.2866L80.2488 78.3621L82.1544 78.3621L82.1544 68.4285L79.9178 68.4285L79.9178 75.3008L79.9143 75.2952ZM98 76.9844L98 72.8115L92.4886 72.8115L92.4886 74.3311L95.7993 74.3311L95.7993 76.196C94.8837 76.696 93.7905 76.9597 92.6732 76.9497C90.0291 76.9497 88.2709 75.4441 88.2709 73.3857C88.2709 71.4546 90.0847 69.8625 92.47 69.8625C94.1178 69.8625 95.0968 70.2754 96.0944 70.9285L97.5366 69.6067C96.2058 68.7405 94.8181 68.2588 92.5629 68.2588C88.6599 68.2588 85.8867 70.6172 85.8867 73.4138C85.8867 76.324 88.5496 78.5391 92.5989 78.5391C94.5774 78.5398 96.4918 77.991 98 76.9907L98 76.9844Z" fill="#FFFFFF" fill-opacity="1.000000" fill-rule="nonzero"/>
	<path id="Vector" d="M17.4558 85.4534L17.004 85.103C16.6556 85.3472 16.3491 85.5022 15.8579 85.5022C15.0927 85.5022 14.541 85.0107 14.541 84.4065C14.541 83.8022 15.0927 83.3179 15.8579 83.3179C16.3154 83.3179 16.6569 83.4712 16.9751 83.699L17.4268 83.2998C17.2222 83.1406 16.9778 83.0164 16.7089 82.9343C16.4398 82.8523 16.1521 82.8147 15.8636 82.8235C15.3247 82.8206 14.8063 82.9849 14.4225 83.2805C14.0386 83.5762 13.8208 83.9788 13.8169 84.3997C13.8131 84.8208 14.0234 85.2256 14.4019 85.5254C14.7803 85.8254 15.2957 85.9954 15.8347 85.9985C16.1403 86.0066 16.4443 85.9622 16.7253 85.8682C17.0063 85.7739 17.2573 85.6326 17.4604 85.4541L17.4558 85.4534ZM24.168 84.4065C24.168 83.5393 23.3121 82.8264 22.0881 82.8264C20.8641 82.8264 19.9978 83.552 19.9978 84.4146C19.9978 85.2773 20.8536 85.9966 22.08 85.9966C23.3063 85.9966 24.1703 85.271 24.1703 84.4065L24.168 84.4065ZM23.4329 84.4146C23.4329 85.0161 22.8801 85.5032 22.0881 85.5032C21.2961 85.5032 20.7306 85.0078 20.7306 84.4075C20.7306 83.8069 21.2833 83.3188 22.0765 83.3188C22.8696 83.3188 23.4329 83.8132 23.4329 84.4128L23.4329 84.4146ZM29.9 84.9971L27.7621 82.8779L27.1118 82.8779L27.1118 85.9431L27.8016 85.9431L27.8016 83.7661L30.0081 85.9431L30.5886 85.9431L30.5886 82.8779L29.8988 82.8779L29.8988 84.9944L29.9 84.9971ZM34.3047 83.679C34.3047 83.4739 34.5439 83.3162 34.9528 83.3162C35.3483 83.3271 35.7285 83.4382 36.0361 83.6328L36.4136 83.2236C36.0037 82.9666 35.491 82.8306 34.9655 82.8391C34.1724 82.8391 33.6033 83.2019 33.6033 83.7324C33.6033 84.3013 34.0829 84.4944 34.9307 84.6514C35.6727 84.783 35.8318 84.9019 35.8318 85.125C35.8318 85.3481 35.5577 85.5149 35.1257 85.5149C34.6299 85.5149 34.2467 85.3699 33.8646 85.115L33.4442 85.5015C33.9026 85.8193 34.4952 85.9939 35.1083 85.9912C35.9468 85.9912 36.5332 85.6501 36.5332 85.0713C36.5332 84.5588 36.0955 84.3276 35.2559 84.1707C34.4905 84.03 34.3094 83.9248 34.3094 83.6836L34.3047 83.679ZM41.0575 83.3779L42.3234 83.3779L42.3234 82.8779L39.0869 82.8779L39.0869 83.3779L40.3514 83.3779L40.3514 85.9431L41.0598 85.9431L41.0598 83.3779L41.0575 83.3779ZM48.5466 85.9431L47.4678 84.783C48.0275 84.6641 48.4211 84.3584 48.4211 83.8503C48.4211 83.2507 47.8568 82.8779 46.9371 82.8779L45.1592 82.8779L45.1592 85.9431L45.856 85.9431L45.856 84.8745L46.7339 84.8745L47.7151 85.9431L48.5466 85.9431ZM47.707 83.8813C47.707 84.1951 47.3888 84.3975 46.8871 84.3975L45.8606 84.3975L45.8606 83.3687L46.8813 83.3687C47.3993 83.3687 47.707 83.5437 47.707 83.8813ZM54.7292 82.8779L54.0325 82.8779L54.0325 84.6433C54.0325 85.2065 53.6493 85.4968 53.0292 85.4968C52.4091 85.4968 52.02 85.1902 52.02 84.6216L52.02 82.8779L51.3232 82.8779L51.3232 84.6433C51.3232 85.5322 51.984 85.9912 53.0222 85.9912C54.0603 85.9912 54.7385 85.5322 54.7385 84.616L54.7385 82.8779L54.7292 82.8779ZM61.259 85.4534L60.8108 85.103C60.4624 85.3472 60.1547 85.5022 59.6635 85.5022C58.8982 85.5022 58.3466 85.0107 58.3466 84.4065C58.3466 83.8022 58.8982 83.3179 59.6635 83.3179C60.1199 83.3179 60.4624 83.4712 60.7806 83.699L61.23 83.2998C61.026 83.1406 60.782 83.0161 60.5134 82.9341C60.2449 82.8523 59.9574 82.8145 59.6693 82.8235C59.1304 82.8208 58.6119 82.9851 58.2283 83.2808C57.8445 83.5764 57.6268 83.979 57.6232 84.4001C57.6195 84.821 57.83 85.2261 58.2085 85.5259C58.587 85.8254 59.1024 85.9956 59.6415 85.9985C59.9457 86.0061 60.2484 85.9612 60.528 85.8672C60.8075 85.7732 61.0571 85.6321 61.259 85.4541L61.259 85.4534ZM65.7776 83.3779L67.0433 83.3779L67.0433 82.8779L63.8058 82.8779L63.8058 83.3779L65.0715 83.3779L65.0715 85.9431L65.7776 85.9431L65.7776 83.3779ZM69.9187 82.8779L69.9187 85.9431L70.6213 85.9431L70.6213 82.8779L69.9187 82.8779ZM77.7771 84.4065C77.7771 83.5393 76.9235 82.8264 75.6973 82.8264C74.4709 82.8264 73.6069 83.552 73.6069 84.4146C73.6069 85.2773 74.4628 85.9966 75.6879 85.9966C76.9131 85.9966 77.7782 85.271 77.7782 84.4065L77.7771 84.4065ZM77.0443 84.4146C77.0443 85.0161 76.4904 85.5032 75.6973 85.5032C74.9041 85.5032 74.3408 85.0078 74.3408 84.4075C74.3408 83.8069 74.8936 83.3188 75.6855 83.3188C76.4775 83.3188 77.0443 83.8132 77.0443 84.4128L77.0443 84.4146ZM83.5115 84.9971L81.3735 82.8779L80.7231 82.8779L80.7231 85.9431L81.4119 85.9431L81.4119 83.7661L83.6183 85.9431L84.207 85.9431L84.207 82.8779L83.5172 82.8779L83.5172 84.9944L83.5115 84.9971Z" fill="#FFFFFF" fill-opacity="1.000000" fill-rule="nonzero"/>
</svg>
