<svg width="304.000000" height="435.000000" viewBox="0 0 304 435" fill="none" xmlns="http://www.w3.org/2000/svg" xmlns:xlink="http://www.w3.org/1999/xlink">
	<desc>
			Created with Pixso.
	</desc>
	<defs>
		<clipPath id="clip25_32">
			<rect id="Logo (2) 7" width="304.000000" height="435.000000" fill="white" fill-opacity="0"/>
		</clipPath>
	</defs>
	<rect id="Logo (2) 7" width="304.000000" height="435.000000" fill="#FFFFFF" fill-opacity="0"/>
	<g clip-path="url(#clip25_32)">
		<mask id="mask25_34" mask-type="alpha" maskUnits="userSpaceOnUse" x="50.717773" y="0.000000" width="203.937134" height="333.777344">
			<path id="Vector" d="M50.7178 0L254.655 0L254.655 333.777L50.7178 333.777L50.7178 0Z" fill="#000000" fill-opacity="1.000000" fill-rule="evenodd"/>
		</mask>
		<g mask="url(#mask25_34)">
			<path id="Vector" d="M121.041 230.359L122.448 203.66L123.854 230.359L123.854 299.333L122.448 325.291L121.041 299.333L121.041 230.359Z" fill="#C5A376" fill-opacity="1.000000" fill-rule="nonzero"/>
			<path id="Vector" d="M180.112 230.359L181.518 203.66L182.925 230.359L182.925 299.333L181.518 325.291L180.112 299.333L180.112 230.359Z" fill="#C5A376" fill-opacity="1.000000" fill-rule="nonzero"/>
			<path id="Vector" d="M133.699 164.128L136.512 118.801L139.325 164.128L139.325 281.222L136.512 325.291L133.699 281.222L133.699 164.128Z" fill="#C5A376" fill-opacity="1.000000" fill-rule="nonzero"/>
			<path id="Vector" d="M209.887 330.949L254.653 332.363L209.887 333.778L94.2394 333.778L50.7163 332.363L94.2394 330.949L209.887 330.949Z" fill="#C5A376" fill-opacity="1.000000" fill-rule="nonzero"/>
			<path id="Vector" d="M164.641 164.128L167.454 118.801L170.267 164.128L170.267 281.222L167.454 325.291L164.641 281.222L164.641 164.128Z" fill="#C5A376" fill-opacity="1.000000" fill-rule="nonzero"/>
			<path id="Vector" d="M149.169 71.0947L151.982 0L154.795 71.0947L154.795 254.757L151.982 323.877L149.169 254.757L149.169 71.0947Z" fill="#C5A376" fill-opacity="1.000000" fill-rule="nonzero"/>
			<path id="Vector" d="M108.38 268.994L109.787 253.161L111.193 268.994L111.193 309.897L109.787 325.291L108.38 309.897L108.38 268.994Z" fill="#C5A376" fill-opacity="1.000000" fill-rule="nonzero"/>
			<path id="Vector" d="M192.768 268.685L194.174 253.161L195.581 268.685L195.581 308.784L194.174 323.876L192.768 308.784L192.768 268.685Z" fill="#C5A376" fill-opacity="1.000000" fill-rule="nonzero"/>
		</g>
		<path id="Vector" d="M10.5991 378.088C10.5991 380.163 11.0289 382.022 11.8888 383.665C12.7772 385.278 13.9952 386.548 15.543 387.47C17.0906 388.393 18.8531 388.852 20.8307 388.852C22.8369 388.852 24.5995 388.393 26.1184 387.47C27.666 386.548 28.8698 385.278 29.7296 383.665C30.618 382.022 31.0623 380.163 31.0623 378.088C31.0623 376.013 30.6323 374.168 29.7726 372.555C28.9127 370.912 27.7091 369.629 26.1614 368.707C24.6425 367.785 22.8655 367.324 20.8307 367.324C18.8531 367.324 17.0906 367.785 15.543 368.707C13.9952 369.629 12.7772 370.912 11.8888 372.555C11.0289 374.168 10.5991 376.013 10.5991 378.088ZM5.22534 378.088C5.22534 375.811 5.6123 373.722 6.38611 371.819C7.15991 369.917 8.2489 368.275 9.65332 366.892C11.0863 365.479 12.7485 364.384 14.6401 363.606C16.5603 362.828 18.6239 362.438 20.8307 362.438C23.0948 362.438 25.1726 362.828 27.0642 363.606C28.9558 364.384 30.6038 365.479 32.0081 366.892C33.441 368.275 34.5444 369.917 35.3182 371.819C36.092 373.722 36.479 375.811 36.479 378.088C36.479 380.336 36.092 382.425 35.3182 384.356C34.5444 386.285 33.4554 387.96 32.051 389.369C30.6467 390.782 28.9845 391.894 27.0642 392.7C25.1726 393.476 23.0948 393.866 20.8307 393.866C18.5952 393.866 16.5173 393.476 14.5972 392.7C12.6769 391.894 11.0146 390.782 9.61035 389.369C8.23462 387.96 7.15991 386.285 6.38611 384.356C5.6123 382.425 5.22534 380.336 5.22534 378.088ZM47.603 378.78L53.1057 378.78L63.2943 393.218L57.1898 393.218L47.603 378.78ZM41.4125 362.958L46.4852 362.958L46.4852 393.218L41.4125 393.218L41.4125 362.958ZM44.4218 367.367L44.4218 362.958L50.6982 362.958C52.8766 362.958 54.7682 363.347 56.3729 364.125C58.0066 364.903 59.2675 365.998 60.1561 367.41C61.0447 368.793 61.4888 370.436 61.4888 372.338C61.4888 374.24 61.0447 375.897 60.1561 377.31C59.2675 378.722 58.0066 379.817 56.3729 380.595C54.7682 381.374 52.8766 381.762 50.6982 381.762L44.4218 381.762L44.4218 377.569L50.4834 377.569C51.6299 377.569 52.6328 377.367 53.4927 376.964C54.3812 376.561 55.0691 375.984 55.5562 375.235C56.0432 374.457 56.287 373.535 56.287 372.468C56.287 371.373 56.0432 370.451 55.5562 369.701C55.0691 368.952 54.3812 368.375 53.4927 367.972C52.6328 367.569 51.6299 367.367 50.4834 367.367L44.4218 367.367ZM66.9796 362.958L72.0953 362.958L72.0953 393.218L66.9796 393.218L66.9796 362.958ZM81.9569 393.218L81.9569 388.721L97.1323 388.721L97.1323 393.218L81.9569 393.218ZM81.9569 367.453L81.9569 362.958L97.1323 362.958L97.1323 367.453L81.9569 367.453ZM81.9569 379.212L81.9569 374.802L96.2726 374.802L96.2726 379.212L81.9569 379.212ZM78.8187 362.958L83.8055 362.958L83.8055 393.218L78.8187 393.218L78.8187 362.958ZM125.346 362.958L130.333 362.958L130.333 394.73L108.365 372.9L108.365 393.218L103.378 393.218L103.378 361.444L125.346 383.275L125.346 362.958ZM133.997 367.669L133.997 362.958L154.976 362.958L154.976 367.669L147.023 367.669L147.023 393.218L141.907 393.218L141.907 367.669L133.997 367.669ZM177.146 374.802L175.083 393.218L169.838 393.218L173.965 361.444L186.303 381.979L198.684 361.444L202.811 393.218L197.566 393.218L195.46 374.802L186.303 390.408L177.146 374.802ZM210.885 393.218L210.885 388.721L226.06 388.721L226.06 393.218L210.885 393.218ZM210.885 367.453L210.885 362.958L226.06 362.958L226.06 367.453L210.885 367.453ZM210.885 379.212L210.885 374.802L225.2 374.802L225.2 379.212L210.885 379.212ZM207.747 362.958L212.733 362.958L212.733 393.218L207.747 393.218L207.747 362.958ZM232.306 362.958L237.465 362.958L237.465 393.218L232.306 393.218L232.306 362.958ZM242.022 393.218L235.444 393.218L235.444 388.42L241.893 388.42C243.383 388.42 244.759 388.204 246.02 387.771C247.281 387.339 248.37 386.69 249.287 385.826C250.233 384.961 250.964 383.881 251.48 382.584C252.024 381.287 252.296 379.788 252.296 378.088C252.296 376.388 252.024 374.889 251.48 373.592C250.964 372.295 250.233 371.214 249.287 370.35C248.37 369.485 247.281 368.837 246.02 368.404C244.759 367.972 243.383 367.756 241.893 367.756L235.444 367.756L235.444 362.958L242.022 362.958C245.088 362.958 247.782 363.592 250.104 364.859C252.425 366.099 254.231 367.856 255.521 370.134C256.839 372.381 257.498 375.033 257.498 378.088C257.498 381.143 256.839 383.809 255.521 386.084C254.231 388.335 252.425 390.091 250.104 391.361C247.782 392.6 245.088 393.218 242.022 393.218ZM262.449 362.958L267.565 362.958L267.565 393.218L262.449 393.218L262.449 362.958ZM277.9 385.437L278.845 381.114L292.817 381.114L293.806 385.437L277.9 385.437ZM285.767 371.517L281.038 382.627L280.952 383.751L276.782 393.218L271.064 393.218L285.767 361.271L300.469 393.218L294.752 393.218L290.667 384.01L290.539 382.757L285.767 371.517Z" fill="#FFFFFF" fill-opacity="1.000000" fill-rule="nonzero"/>
		<path id="Vector" d="M21.1384 410.231L23.1036 410.231L23.1036 429.5L21.1384 429.5L21.1384 410.231ZM11.6807 423.818C11.6807 422.583 11.9344 421.529 12.4423 420.657C12.95 419.769 13.6295 419.086 14.4812 418.607C15.3328 418.128 16.2662 417.889 17.2816 417.889C18.2316 417.889 19.0586 418.128 19.7628 418.607C20.467 419.086 21.0156 419.769 21.4087 420.657C21.8181 421.529 22.0228 422.583 22.0228 423.818C22.0228 425.038 21.8181 426.091 21.4087 426.979C21.0156 427.871 20.467 428.554 19.7628 429.033C19.0586 429.507 18.2316 429.747 17.2816 429.747C16.2662 429.747 15.3328 429.507 14.4812 429.033C13.6295 428.554 12.95 427.871 12.4423 426.979C11.9344 426.091 11.6807 425.038 11.6807 423.818ZM13.6705 423.818C13.6705 424.69 13.8424 425.431 14.1864 426.041C14.5466 426.651 15.0216 427.114 15.6112 427.427C16.2008 427.74 16.8395 427.894 17.5273 427.894C18.1005 427.894 18.6655 427.74 19.2223 427.427C19.7792 427.114 20.2377 426.651 20.598 426.041C20.9583 425.431 21.1384 424.69 21.1384 423.818C21.1384 422.946 20.9583 422.205 20.598 421.595C20.2377 420.985 19.7792 420.525 19.2223 420.213C18.6655 419.9 18.1005 419.742 17.5273 419.742C16.8395 419.742 16.2008 419.9 15.6112 420.213C15.0216 420.525 14.5466 420.985 14.1864 421.595C13.8424 422.205 13.6705 422.946 13.6705 423.818ZM46.0311 429.747C44.9829 429.747 44.0493 429.5 43.2306 429.005C42.428 428.496 41.7977 427.797 41.3391 426.906C40.8969 426.018 40.6758 424.987 40.6758 423.818C40.6758 422.633 40.905 421.595 41.3636 420.707C41.8385 419.815 42.4937 419.125 43.3289 418.63C44.1807 418.136 45.1633 417.889 46.2767 417.889C47.3903 417.889 48.3403 418.128 49.1265 418.607C49.929 419.066 50.5431 419.734 50.9689 420.606C51.3945 421.479 51.6075 422.517 51.6075 423.722C51.6075 423.833 51.5995 423.957 51.583 424.092C51.583 424.204 51.583 424.281 51.583 424.312L41.9287 424.312L41.9287 422.633L50.0353 422.633L49.2493 423.768C49.2983 423.687 49.3475 423.563 49.3966 423.397C49.4458 423.216 49.4703 423.069 49.4703 422.954C49.4703 422.278 49.3309 421.695 49.0527 421.201C48.7905 420.707 48.4221 420.321 47.9473 420.039C47.4724 419.757 46.9155 419.619 46.2767 419.619C45.5233 419.619 44.8766 419.785 44.3361 420.113C43.8121 420.425 43.4026 420.888 43.1078 421.498C42.8296 422.089 42.6821 422.822 42.6656 423.694C42.6656 424.586 42.8049 425.343 43.0833 425.968C43.3616 426.593 43.7711 427.072 44.3115 427.4C44.8519 427.732 45.5072 427.894 46.2767 427.894C47.0464 427.894 47.7262 427.732 48.3158 427.4C48.9053 427.056 49.4047 426.535 49.8142 425.844L51.411 426.855C50.8214 427.813 50.0764 428.539 49.1755 429.033C48.2911 429.507 47.2429 429.747 46.0311 429.747ZM67.0839 418.136L69.2948 418.136L72.4883 426.165L75.6819 418.136L77.8928 418.136L72.4883 430.364L67.0839 418.136ZM98.7437 429.747C97.6954 429.747 96.762 429.5 95.9431 429.005C95.1406 428.496 94.5103 427.797 94.0516 426.906C93.6094 426.018 93.3883 424.987 93.3883 423.818C93.3883 422.633 93.6174 421.595 94.0762 420.707C94.551 419.815 95.2062 419.125 96.0414 418.63C96.8932 418.136 97.8757 417.889 98.9893 417.889C100.103 417.889 101.053 418.128 101.839 418.607C102.642 419.066 103.256 419.734 103.681 420.606C104.107 421.479 104.32 422.517 104.32 423.722C104.32 423.833 104.312 423.957 104.296 424.092C104.296 424.204 104.296 424.281 104.296 424.312L94.6412 424.312L94.6412 422.633L102.748 422.633L101.962 423.768C102.011 423.687 102.06 423.563 102.109 423.397C102.158 423.216 102.183 423.069 102.183 422.954C102.183 422.278 102.043 421.695 101.765 421.201C101.503 420.707 101.135 420.321 100.66 420.039C100.185 419.757 99.6281 419.619 98.9893 419.619C98.2358 419.619 97.5891 419.785 97.0486 420.113C96.5247 420.425 96.1151 420.888 95.8203 421.498C95.5421 422.089 95.3947 422.822 95.3782 423.694C95.3782 424.586 95.5175 425.343 95.7958 425.968C96.0741 426.593 96.4836 427.072 97.024 427.4C97.5645 427.732 98.2197 427.894 98.9893 427.894C99.7589 427.894 100.439 427.732 101.028 427.4C101.618 427.056 102.117 426.535 102.527 425.844L104.124 426.855C103.534 427.813 102.789 428.539 101.888 429.033C101.004 429.507 99.9554 429.747 98.7437 429.747ZM121.999 410.231L123.964 410.231L123.964 429.5L121.999 429.5L121.999 410.231ZM141.663 423.818C141.663 422.668 141.917 421.645 142.424 420.757C142.948 419.866 143.653 419.167 144.537 418.657C145.422 418.144 146.412 417.889 147.51 417.889C148.623 417.889 149.614 418.144 150.482 418.657C151.366 419.167 152.062 419.866 152.57 420.757C153.094 421.645 153.356 422.668 153.356 423.818C153.356 424.957 153.094 425.976 152.57 426.883C152.062 427.771 151.366 428.473 150.482 428.982C149.614 429.492 148.623 429.747 147.51 429.747C146.412 429.747 145.422 429.492 144.537 428.982C143.653 428.473 142.948 427.771 142.424 426.883C141.917 425.976 141.663 424.957 141.663 423.818ZM143.653 423.818C143.653 424.609 143.816 425.308 144.144 425.917C144.488 426.527 144.946 427.014 145.52 427.377C146.109 427.72 146.773 427.894 147.51 427.894C148.247 427.894 148.901 427.72 149.475 427.377C150.064 427.014 150.523 426.527 150.85 425.917C151.194 425.308 151.366 424.609 151.366 423.818C151.366 423.027 151.194 422.328 150.85 421.718C150.523 421.093 150.064 420.606 149.475 420.263C148.901 419.916 148.247 419.742 147.51 419.742C146.773 419.742 146.109 419.916 145.52 420.263C144.946 420.606 144.488 421.093 144.144 421.718C143.816 422.328 143.653 423.027 143.653 423.818ZM172.883 434.934L170.918 434.934L170.918 418.136L172.883 418.136L172.883 434.934ZM182.341 423.818C182.341 425.038 182.087 426.091 181.579 426.979C181.072 427.871 180.392 428.554 179.541 429.033C178.705 429.507 177.772 429.747 176.74 429.747C175.807 429.747 174.979 429.507 174.259 429.033C173.555 428.554 172.998 427.871 172.588 426.979C172.195 426.091 171.999 425.038 171.999 423.818C171.999 422.583 172.195 421.529 172.588 420.657C172.998 419.769 173.555 419.086 174.259 418.607C174.979 418.128 175.807 417.889 176.74 417.889C177.772 417.889 178.705 418.128 179.541 418.607C180.392 419.086 181.072 419.769 181.579 420.657C182.087 421.529 182.341 422.583 182.341 423.818ZM180.351 423.818C180.351 422.946 180.171 422.205 179.811 421.595C179.467 420.985 179 420.525 178.411 420.213C177.837 419.9 177.199 419.742 176.494 419.742C175.921 419.742 175.356 419.9 174.799 420.213C174.242 420.525 173.784 420.985 173.424 421.595C173.063 422.205 172.883 422.946 172.883 423.818C172.883 424.69 173.063 425.431 173.424 426.041C173.784 426.651 174.242 427.114 174.799 427.427C175.356 427.74 175.921 427.894 176.494 427.894C177.199 427.894 177.837 427.74 178.411 427.427C179 427.114 179.467 426.651 179.811 426.041C180.171 425.431 180.351 424.69 180.351 423.818ZM215.512 422.336L215.512 429.5L213.547 429.5L213.547 422.583C213.547 421.61 213.367 420.896 213.007 420.433C212.663 419.974 212.122 419.742 211.385 419.742C210.845 419.742 210.378 419.858 209.985 420.089C209.592 420.302 209.289 420.622 209.076 421.05C208.863 421.479 208.757 421.992 208.757 422.583L208.757 429.5L206.792 429.5L206.792 422.583C206.792 421.61 206.611 420.896 206.251 420.433C205.907 419.974 205.367 419.742 204.63 419.742C204.089 419.742 203.623 419.858 203.229 420.089C202.836 420.302 202.534 420.622 202.321 421.05C202.108 421.479 202.001 421.992 202.001 422.583L202.001 429.5L200.036 429.5L200.036 418.136L202.001 418.136L202.001 419.792C202.345 419.151 202.771 418.673 203.279 418.36C203.802 418.047 204.417 417.889 205.121 417.889C205.907 417.889 206.578 418.079 207.135 418.457C207.708 418.819 208.126 419.341 208.388 420.016C208.781 419.306 209.273 418.781 209.862 418.434C210.452 418.071 211.123 417.889 211.877 417.889C212.646 417.889 213.301 418.063 213.842 418.41C214.382 418.754 214.792 419.263 215.07 419.939C215.365 420.599 215.512 421.398 215.512 422.336ZM238.562 429.747C237.514 429.747 236.58 429.5 235.761 429.005C234.959 428.496 234.328 427.797 233.87 426.906C233.428 426.018 233.207 424.987 233.207 423.818C233.207 422.633 233.436 421.595 233.894 420.707C234.369 419.815 235.024 419.125 235.86 418.63C236.711 418.136 237.694 417.889 238.807 417.889C239.921 417.889 240.871 418.128 241.657 418.607C242.459 419.066 243.073 419.734 243.5 420.606C243.925 421.479 244.138 422.517 244.138 423.722C244.138 423.833 244.13 423.957 244.114 424.092C244.114 424.204 244.114 424.281 244.114 424.312L234.459 424.312L234.459 422.633L242.566 422.633L241.78 423.768C241.829 423.687 241.878 423.563 241.927 423.397C241.976 423.216 242.001 423.069 242.001 422.954C242.001 422.278 241.862 421.695 241.583 421.201C241.321 420.707 240.953 420.321 240.478 420.039C240.003 419.757 239.446 419.619 238.807 419.619C238.054 419.619 237.407 419.785 236.867 420.113C236.342 420.425 235.933 420.888 235.638 421.498C235.36 422.089 235.212 422.822 235.196 423.694C235.196 424.586 235.335 425.343 235.614 425.968C235.892 426.593 236.302 427.072 236.842 427.4C237.383 427.732 238.037 427.894 238.807 427.894C239.577 427.894 240.257 427.732 240.846 427.4C241.436 427.056 241.935 426.535 242.345 425.844L243.942 426.855C243.352 427.813 242.607 428.539 241.706 429.033C240.822 429.507 239.774 429.747 238.562 429.747ZM269.063 422.583C269.063 421.645 268.859 420.938 268.449 420.46C268.04 419.981 267.442 419.742 266.656 419.742C266.083 419.742 265.575 419.866 265.133 420.113C264.707 420.344 264.371 420.672 264.126 421.101C263.897 421.529 263.782 422.023 263.782 422.583L263.782 429.5L261.817 429.5L261.817 418.136L263.782 418.136L263.782 419.916C264.158 419.225 264.625 418.715 265.182 418.383C265.755 418.055 266.41 417.889 267.147 417.889C268.343 417.889 269.285 418.294 269.972 419.101C270.677 419.893 271.029 420.969 271.029 422.336L271.029 429.5L269.063 429.5L269.063 422.583ZM287.989 418.136L293.639 418.136L293.639 419.989L287.989 419.989L287.989 418.136ZM289.831 414.184L291.796 414.184L291.796 429.5L289.831 429.5L289.831 414.184Z" fill="#C5A376" fill-opacity="1.000000" fill-rule="nonzero"/>
	</g>
</svg>
