<svg width="136.000000" height="124.000000" viewBox="0 0 136 124" fill="none" xmlns="http://www.w3.org/2000/svg" xmlns:xlink="http://www.w3.org/1999/xlink">
	<desc>
			Created with Pixso.
	</desc>
	<defs/>
	<path id="Vector" d="M135.217 94.0437C135.015 94.0437 134.821 93.9636 134.678 93.8213C134.536 93.6787 134.455 93.4854 134.455 93.2839L134.455 27.4722L127.758 24.73C127.661 24.6958 127.571 24.6423 127.494 24.5723C127.418 24.5024 127.357 24.4177 127.314 24.3232C127.272 24.229 127.249 24.127 127.248 24.0237C127.246 23.9202 127.266 23.8176 127.306 23.7222C127.345 23.6265 127.404 23.54 127.478 23.468C127.552 23.3958 127.641 23.3394 127.737 23.3025C127.834 23.2656 127.937 23.2488 128.041 23.2532C128.144 23.2573 128.246 23.2827 128.339 23.3274L135.507 26.2852C135.645 26.345 135.762 26.4426 135.846 26.5669C135.929 26.6912 135.975 26.8369 135.979 26.9863L135.979 93.2839C135.979 93.4854 135.898 93.6787 135.755 93.8213C135.613 93.9636 135.419 94.0437 135.217 94.0437Z" fill="#FFFFFF" fill-opacity="1.000000" fill-rule="nonzero"/>
	<path id="Vector" d="M110.154 121.876C109.952 121.875 109.759 121.795 109.617 121.653C109.474 121.51 109.393 121.318 109.392 121.116L109.392 108.91C109.393 108.805 109.415 108.702 109.457 108.606C109.5 108.51 109.562 108.424 109.64 108.354C109.718 108.284 109.809 108.231 109.908 108.198C110.007 108.164 110.112 108.15 110.217 108.158L134.948 110.234C135.052 110.241 135.153 110.271 135.245 110.32C135.337 110.369 135.417 110.438 135.481 110.52C135.626 110.574 135.751 110.671 135.839 110.797C135.928 110.924 135.975 111.075 135.976 111.229L135.976 120.564C135.976 120.762 135.898 120.953 135.758 121.094C135.619 121.236 135.429 121.317 135.23 121.32L110.166 121.876L110.154 121.876ZM110.911 109.732L110.911 120.337L134.465 119.816L134.465 111.711L110.911 109.732Z" fill="#FFFFFF" fill-opacity="1.000000" fill-rule="nonzero"/>
	<path id="Vector" d="M102.404 110.438C102.304 110.439 102.205 110.42 102.113 110.382C102.02 110.345 101.936 110.289 101.866 110.219C101.795 110.148 101.74 110.064 101.702 109.972C101.664 109.88 101.645 109.781 101.646 109.682L101.646 93.9495C101.647 93.7825 101.702 93.6201 101.804 93.4875C101.907 93.3552 102.05 93.26 102.212 93.217L110.561 91.0154C110.646 90.998 110.733 90.9902 110.82 90.9919L135.308 93.072C135.488 93.0884 135.656 93.1682 135.782 93.2971C135.909 93.4258 135.985 93.5955 135.998 93.7754C136.011 93.9553 135.959 94.1338 135.852 94.2791C135.745 94.4246 135.589 94.5271 135.414 94.5686L103.224 101.925L103.161 101.925L103.161 108.835L110.07 108.15C110.17 108.138 110.271 108.146 110.367 108.174C110.464 108.202 110.553 108.249 110.631 108.312C110.709 108.375 110.773 108.454 110.819 108.542C110.866 108.631 110.894 108.728 110.903 108.828C110.913 108.927 110.904 109.027 110.875 109.122C110.846 109.218 110.799 109.307 110.736 109.384C110.673 109.461 110.595 109.525 110.507 109.572C110.419 109.619 110.323 109.648 110.224 109.658L102.475 110.442L102.404 110.438ZM103.165 94.5371L103.165 100.386L130.338 94.1768L110.824 92.5198L103.165 94.5371Z" fill="#FFFFFF" fill-opacity="1.000000" fill-rule="nonzero"/>
	<path id="Vector" d="M110.154 121.876L110.103 121.876L94.8204 120.846C94.6282 120.833 94.4479 120.748 94.316 120.608C94.1842 120.468 94.1106 120.282 94.11 120.09L94.11 97.1384L83.9037 99.7239C83.7916 99.7534 83.6744 99.7568 83.5609 99.7336C83.4474 99.7107 83.3407 99.6616 83.2493 99.5908C83.1577 99.52 83.0839 99.429 83.0332 99.3252C82.9827 99.2212 82.9568 99.1069 82.9576 98.9912L82.9576 44.7124L68.3193 41.5393C68.1228 41.4954 67.9517 41.3752 67.8435 41.2058C67.7354 41.0361 67.699 40.8306 67.7423 40.6343C67.7632 40.5371 67.8032 40.4451 67.8601 40.3633C67.9169 40.2817 67.9894 40.2119 68.0734 40.1584C68.1572 40.105 68.2511 40.0684 68.3492 40.0513C68.4474 40.0342 68.548 40.0366 68.6451 40.0586L83.8761 43.3608C84.0461 43.3967 84.1986 43.49 84.308 43.6248C84.4174 43.7595 84.4769 43.9277 84.4768 44.1013L84.4768 98.012L94.6635 95.4226C94.7754 95.3938 94.8925 95.3911 95.0056 95.4146C95.1188 95.438 95.2251 95.4868 95.3164 95.5576C95.4077 95.6282 95.4816 95.719 95.5323 95.8225C95.5833 95.926 95.6096 96.0398 95.6095 96.155L95.6095 119.373L110.185 120.361C110.378 120.379 110.556 120.47 110.684 120.616C110.811 120.761 110.879 120.949 110.872 121.142C110.866 121.335 110.786 121.519 110.649 121.655C110.511 121.792 110.328 121.871 110.134 121.876L110.154 121.876Z" fill="#FFFFFF" fill-opacity="1.000000" fill-rule="nonzero"/>
	<path id="Vector" d="M110.757 92.5125C110.555 92.5125 110.362 92.4324 110.219 92.2898C110.076 92.1472 109.996 91.9539 109.996 91.7524L109.996 61.8708C109.996 61.7427 110.028 61.6167 110.091 61.5049C110.154 61.3931 110.244 61.2993 110.353 61.2322L114.612 58.5566C114.698 58.5024 114.793 58.4658 114.893 58.449C114.993 58.4321 115.095 58.4355 115.193 58.4587L128.242 61.5925C128.392 61.6282 128.528 61.7087 128.631 61.8237C128.734 61.9385 128.8 62.082 128.819 62.2351C128.839 62.3899 128.812 62.5471 128.742 62.6865C128.672 62.8262 128.562 62.9419 128.426 63.0186L123.896 65.3689C123.74 65.4482 123.562 65.4729 123.39 65.4395L111.531 63.0186L111.531 91.7446C111.532 91.8459 111.512 91.9468 111.474 92.0405C111.435 92.1345 111.378 92.2197 111.306 92.2913C111.234 92.3628 111.149 92.4192 111.054 92.4573C110.96 92.4951 110.859 92.5139 110.757 92.5125ZM112.492 61.6787L123.421 63.9077L125.918 62.6072L115.15 60.01L112.492 61.6787Z" fill="#FFFFFF" fill-opacity="1.000000" fill-rule="nonzero"/>
	<path id="Vector" d="M115.017 59.9548C114.918 59.9553 114.819 59.9363 114.726 59.8984C114.634 59.8608 114.55 59.8052 114.479 59.7349C114.408 59.6646 114.352 59.5811 114.314 59.489C114.276 59.3972 114.256 59.2986 114.256 59.199L114.256 2.67529L107.261 10.0437L107.261 20.5933C107.26 20.7273 107.223 20.8589 107.154 20.9739C107.085 21.0891 106.986 21.1836 106.868 21.2476L71.1459 41.6177C71.058 41.6663 70.9613 41.6973 70.8615 41.7085C70.7616 41.72 70.6605 41.7114 70.5638 41.6838C70.4673 41.6562 70.3771 41.6099 70.2985 41.5474C70.2198 41.4851 70.1543 41.4077 70.1056 41.3201C70.0569 41.2324 70.0259 41.1357 70.0145 41.0361C70.0032 40.9365 70.0116 40.8357 70.0393 40.7393C70.067 40.6428 70.1134 40.553 70.176 40.4744C70.2385 40.396 70.316 40.3306 70.4039 40.282L105.734 20.1191L105.734 9.72656C105.736 9.5332 105.81 9.34766 105.942 9.20557L114.456 0.242676C114.563 0.134277 114.698 0.0593262 114.847 0.0266113C114.995 -0.00585938 115.15 0.00512695 115.292 0.0583496C115.433 0.11499 115.554 0.212402 115.638 0.338135C115.723 0.463867 115.768 0.612061 115.767 0.763672L115.767 59.2029C115.767 59.4016 115.688 59.5923 115.548 59.7332C115.407 59.8743 115.217 59.9539 115.017 59.9548Z" fill="#FFFFFF" fill-opacity="1.000000" fill-rule="nonzero"/>
	<path id="Vector" d="M128.067 63.1003C127.967 63.1008 127.868 63.0818 127.776 63.0439C127.683 63.0061 127.599 62.9507 127.529 62.8804C127.458 62.8101 127.402 62.7266 127.364 62.6345C127.325 62.5427 127.305 62.4438 127.305 62.3442L127.305 7.07031L114.708 1.44897C114.618 1.4082 114.535 1.3501 114.467 1.27783C114.399 1.20557 114.345 1.12061 114.309 1.02759C114.274 0.93457 114.257 0.835693 114.26 0.736084C114.263 0.636719 114.285 0.538818 114.326 0.447998C114.366 0.357178 114.425 0.275391 114.497 0.207031C114.57 0.138672 114.655 0.0852051 114.748 0.0498047C114.841 0.0144043 114.94 -0.00244141 115.04 0.000244141C115.14 0.00317383 115.238 0.0253906 115.329 0.0661621L128.377 5.88721C128.511 5.94751 128.624 6.04517 128.703 6.16821C128.783 6.29102 128.825 6.43433 128.825 6.58057L128.825 62.3442C128.825 62.4438 128.806 62.5422 128.768 62.6343C128.73 62.7263 128.674 62.8098 128.604 62.8801C128.533 62.9504 128.45 63.0061 128.358 63.0439C128.265 63.0818 128.167 63.1008 128.067 63.1003Z" fill="#FFFFFF" fill-opacity="1.000000" fill-rule="nonzero"/>
	<path id="Vector" d="M125.142 57.009C125.108 57.0146 125.074 57.0146 125.04 57.009L117.943 54.9917C117.864 54.9678 117.794 54.9199 117.744 54.8545C117.694 54.7891 117.666 54.7095 117.664 54.6274L117.664 6.33398C117.665 6.27222 117.681 6.21167 117.71 6.15723C117.74 6.10254 117.782 6.05591 117.833 6.02075C117.885 5.98682 117.945 5.96606 118.007 5.95996C118.069 5.95386 118.132 5.9624 118.19 5.98535L125.287 8.9353C125.356 8.96533 125.415 9.0144 125.457 9.0769C125.499 9.1394 125.521 9.21265 125.523 9.28784L125.523 56.6292C125.523 56.7329 125.481 56.8325 125.408 56.906C125.334 56.9795 125.234 57.0208 125.13 57.0208L125.142 57.009ZM118.425 54.3257L124.761 56.1277L124.761 9.53857L118.425 6.9021L118.425 54.3257Z" fill="#FFFFFF" fill-opacity="1.000000" fill-rule="nonzero"/>
	<path id="Vector" d="M7.06628 123.98C6.9668 123.98 6.86816 123.961 6.77625 123.923C6.68433 123.885 6.60083 123.829 6.53052 123.759C6.46021 123.689 6.40442 123.605 6.36633 123.514C6.32825 123.422 6.30859 123.324 6.30859 123.224L6.30859 73.5366C6.30811 73.4302 6.33032 73.325 6.37354 73.2275C6.41687 73.1304 6.48035 73.0435 6.55981 72.9724C6.64111 72.9021 6.73596 72.8489 6.83862 72.8167C6.94128 72.7842 7.04944 72.7734 7.15649 72.7844L42.651 76.8743L42.651 47.0161L39.8325 51.0156C39.7391 51.1465 39.6067 51.2444 39.4541 51.2954C39.3015 51.3464 39.1367 51.3479 38.9833 51.2996C38.8298 51.2512 38.6956 51.1558 38.5999 51.0266C38.5043 50.8975 38.452 50.7415 38.4507 50.5808L38.4507 27.0061C38.4504 26.8909 38.4764 26.7769 38.5267 26.6731C38.577 26.5691 38.6504 26.478 38.7412 26.4067C38.8331 26.3376 38.9392 26.2896 39.0518 26.2659C39.1644 26.2422 39.2808 26.2434 39.3928 26.2698L68.6262 33.4033C68.7915 33.4436 68.9386 33.5378 69.0439 33.6714C69.1493 33.8049 69.2067 33.9697 69.2072 34.1396L69.2072 49.8679L74.4124 50.9216C74.5841 50.9568 74.7385 51.05 74.8494 51.1858C74.9602 51.3213 75.0208 51.491 75.0209 51.666L75.0209 93.5583C75.0211 93.6621 74.9996 93.7651 74.9578 93.8601C74.9158 93.9553 74.8544 94.0405 74.7775 94.1106C74.7003 94.1809 74.6099 94.2351 74.5115 94.27C74.4131 94.3052 74.3086 94.3201 74.2043 94.3145L12.9977 89.7192L12.9977 106.956L74.7736 109.255C74.9688 109.268 75.1522 109.353 75.2881 109.493C75.4238 109.634 75.5022 109.82 75.5076 110.015L75.5076 122.159C75.5066 122.358 75.4275 122.548 75.2874 122.69C75.1472 122.831 74.957 122.912 74.7578 122.915L7.078 124L7.06628 123.98ZM7.82776 74.3867L7.82776 122.453L73.9845 121.391L73.9845 110.716L12.2086 108.417C12.0122 108.41 11.826 108.327 11.6892 108.186C11.5524 108.045 11.4755 107.857 11.4746 107.661L11.4746 88.8926C11.4761 88.7886 11.4983 88.6855 11.54 88.5901C11.5819 88.4946 11.6423 88.4084 11.718 88.3364C11.7939 88.2646 11.8843 88.2097 11.9832 88.1753C12.0819 88.1409 12.1869 88.1277 12.2911 88.1367L73.5017 92.7278L73.5017 52.2849L44.1702 46.3345L44.1702 77.7244C44.171 77.8311 44.1486 77.9368 44.1045 78.0342C44.0605 78.1316 43.9958 78.2183 43.915 78.2883C43.8346 78.3591 43.7405 78.4126 43.6385 78.4456C43.5366 78.4785 43.429 78.4905 43.3223 78.4802L7.82776 74.3867ZM42.9258 44.5481C42.9767 44.5422 43.0281 44.5422 43.079 44.5481L67.688 49.5427L67.688 34.7195L39.9698 27.9541L39.9698 48.1677L42.3252 44.8577C42.394 44.7627 42.4843 44.6853 42.5886 44.6316C42.6929 44.5776 42.8085 44.5491 42.9258 44.5481Z" fill="#FFFFFF" fill-opacity="1.000000" fill-rule="nonzero"/>
	<path id="Vector" d="M19.826 75.5386C19.7262 75.5391 19.6272 75.5198 19.5349 75.4819C19.4425 75.4443 19.3585 75.3887 19.2877 75.3184C19.217 75.248 19.1609 75.1646 19.1226 75.0728C19.0842 74.9807 19.0645 74.8821 19.0645 74.7825L19.0645 63.3044C19.0646 63.1802 19.0956 63.0576 19.1548 62.948L38.5389 26.6536C38.6398 26.4873 38.8005 26.366 38.9883 26.3145C39.176 26.2627 39.3763 26.2849 39.5483 26.3762C39.7202 26.4675 39.8505 26.6211 39.9125 26.8052C39.9745 26.9895 39.9634 27.1904 39.8815 27.3667L20.5875 63.4927L20.5875 74.7825C20.5875 74.8821 20.5679 74.9807 20.5295 75.0728C20.4912 75.1646 20.4351 75.248 20.3643 75.3184C20.2935 75.3887 20.2095 75.4443 20.1172 75.4819C20.0248 75.5198 19.9259 75.5391 19.826 75.5386Z" fill="#FFFFFF" fill-opacity="1.000000" fill-rule="nonzero"/>
	<path id="Vector" d="M68.1227 110.277C68.0231 110.277 67.9243 110.258 67.8322 110.22C67.74 110.182 67.6564 110.127 67.5859 110.056C67.5154 109.986 67.4596 109.903 67.4218 109.811C67.3838 109.719 67.3646 109.62 67.3651 109.521L67.3651 96.2017C67.368 96.054 67.4127 95.9104 67.494 95.7869C67.5752 95.6636 67.6898 95.5657 67.8245 95.5044L73.96 92.8679C74.1448 92.7886 74.3536 92.7856 74.5406 92.8599C74.7277 92.9338 74.8774 93.0791 74.957 93.2637C75.0367 93.448 75.0397 93.6565 74.9653 93.843C74.891 94.0295 74.7454 94.1792 74.5605 94.2585L68.8843 96.6992L68.8843 109.54C68.8792 109.738 68.7965 109.926 68.6542 110.064C68.5117 110.201 68.3209 110.278 68.1227 110.277Z" fill="#FFFFFF" fill-opacity="1.000000" fill-rule="nonzero"/>
	<path id="Vector" d="M83.7948 77.7087L83.6887 77.7087L74.4834 76.4663C74.3844 76.4534 74.2891 76.4209 74.2026 76.3708C74.1163 76.3206 74.0409 76.2539 73.9806 76.1746C73.9204 76.095 73.8765 76.0044 73.8517 75.9077C73.8268 75.8113 73.8214 75.7107 73.8357 75.6121C73.8472 75.5129 73.8787 75.4172 73.9281 75.3306C73.9775 75.2439 74.0441 75.168 74.1237 75.1077C74.2032 75.0471 74.2942 75.0034 74.3911 74.979C74.488 74.9546 74.5889 74.95 74.6876 74.9656L83.8969 76.2039C84.0868 76.2312 84.2594 76.3291 84.3801 76.4783C84.5007 76.6272 84.5607 76.8162 84.5479 77.0073C84.5349 77.1985 84.4501 77.3777 84.3105 77.5093C84.1709 77.6406 83.9867 77.7148 83.7948 77.7166L83.7948 77.7087Z" fill="#FFFFFF" fill-opacity="1.000000" fill-rule="nonzero"/>
	<path id="Vector" d="M83.6335 89.1865L83.5787 89.1865L74.55 88.5674C74.3485 88.5532 74.1609 88.46 74.0284 88.3079C73.8959 88.1558 73.8293 87.9573 73.8434 87.7561C73.8641 87.5586 73.9591 87.3765 74.1093 87.2463C74.2594 87.1162 74.4534 87.0476 74.652 87.0547L83.6807 87.6738C83.8734 87.6926 84.0518 87.7839 84.1794 87.9292C84.3071 88.0745 84.3745 88.2629 84.368 88.4561C84.3616 88.6492 84.2816 88.8328 84.1444 88.969C84.0073 89.1055 83.8232 89.1846 83.6296 89.1904L83.6335 89.1865Z" fill="#FFFFFF" fill-opacity="1.000000" fill-rule="nonzero"/>
	<path id="Vector" d="M68.1279 96.9385L68.0494 96.9385L12.3071 92.5942C12.1158 92.5667 11.9421 92.4675 11.8213 92.3169C11.7004 92.1663 11.6416 91.9753 11.6566 91.783C11.6715 91.5908 11.7593 91.4114 11.902 91.281C12.0446 91.1509 12.2316 91.0798 12.4249 91.082L68.1908 95.4265C68.3917 95.4336 68.5815 95.5203 68.7185 95.6672C68.8553 95.8142 68.9282 96.0093 68.9209 96.21C68.9136 96.4104 68.8268 96.5999 68.6796 96.7366C68.5323 96.873 68.3368 96.9458 68.1357 96.9385L68.1279 96.9385Z" fill="#FFFFFF" fill-opacity="1.000000" fill-rule="nonzero"/>
	<path id="Vector" d="M94.8715 120.842L94.8087 120.842L74.8591 119.244C74.7595 119.237 74.6625 119.21 74.5734 119.165C74.4843 119.12 74.4049 119.057 74.34 118.982C74.275 118.906 74.2257 118.818 74.1949 118.723C74.1641 118.629 74.1523 118.529 74.1604 118.429C74.1831 118.231 74.2806 118.049 74.4331 117.92C74.5854 117.792 74.7814 117.726 74.9808 117.736L94.9303 119.334C95.1312 119.342 95.3209 119.429 95.4574 119.576C95.594 119.724 95.6663 119.919 95.6586 120.12C95.6508 120.32 95.5634 120.509 95.4158 120.646C95.2682 120.782 95.0724 120.854 94.8715 120.846L94.8715 120.842Z" fill="#FFFFFF" fill-opacity="1.000000" fill-rule="nonzero"/>
	<path id="Vector" d="M7.06592 123.98C6.87549 123.98 6.69177 123.909 6.55164 123.781L0.243408 117.955C0.166138 117.885 0.104614 117.799 0.0626221 117.703C0.020752 117.607 -0.000610352 117.504 0 117.399L0 77.0308C-0.000244141 76.8948 0.0361328 76.7615 0.105103 76.6443C0.174194 76.5271 0.273438 76.4307 0.392578 76.3647L6.70081 72.8743C6.78796 72.8262 6.88367 72.7957 6.98267 72.7847C7.08154 72.7734 7.18176 72.7817 7.27747 72.8093C7.37317 72.8367 7.46252 72.8828 7.54028 72.9446C7.61816 73.0066 7.68311 73.0833 7.73132 73.1702C7.77954 73.2571 7.81006 73.3525 7.82129 73.4514C7.83252 73.55 7.82397 73.6501 7.79651 73.7456C7.76904 73.8411 7.7229 73.9302 7.66089 74.0078C7.59875 74.0854 7.52209 74.1504 7.43494 74.1985L1.51917 77.4773L1.51917 117.062L7.59583 122.664C7.70776 122.768 7.78577 122.903 7.81958 123.052C7.85352 123.201 7.84167 123.356 7.78577 123.498C7.72998 123.64 7.63245 123.762 7.50623 123.848C7.37988 123.934 7.23059 123.98 7.07776 123.98L7.06592 123.98Z" fill="#FFFFFF" fill-opacity="1.000000" fill-rule="nonzero"/>
</svg>
