<svg width="72.000000" height="124.000000" viewBox="0 0 72 124" fill="none" xmlns="http://www.w3.org/2000/svg" xmlns:xlink="http://www.w3.org/1999/xlink">
	<desc>
			Created with Pixso.
	</desc>
	<defs/>
	<path id="Vector" d="M56.9133 97.6169L0.700195 97.6169C0.591553 97.6174 0.484131 97.5923 0.386719 97.5435C0.289307 97.4946 0.20459 97.4233 0.139404 97.3354C0.0739746 97.2476 0.0300293 97.1455 0.0109863 97.0376C-0.00830078 96.9294 -0.00219727 96.8184 0.0288086 96.7131L28.1299 0.456543C28.1838 0.321533 28.2764 0.206055 28.3955 0.124756C28.5149 0.043457 28.6555 0 28.7996 0C28.9436 0 29.0842 0.043457 29.2036 0.124756C29.3228 0.206055 29.4153 0.321533 29.4692 0.456543L57.5703 96.7131C57.6008 96.8171 57.6072 96.927 57.5889 97.0339C57.5706 97.1409 57.5278 97.2422 57.4641 97.3296C57.4004 97.4172 57.3176 97.4888 57.2222 97.5386C57.1265 97.5884 57.0208 97.6152 56.9133 97.6169ZM1.646 96.2063L55.9639 96.2063L28.7979 3.15698L1.646 96.2063Z" fill="#FFFFFF" fill-opacity="1.000000" fill-rule="nonzero"/>
	<path id="Vector" d="M35.9292 123.98L28.8191 123.98C28.7305 123.98 28.6428 123.962 28.5608 123.927C28.479 123.892 28.4045 123.841 28.342 123.775C28.2793 123.71 28.2297 123.632 28.196 123.547C28.1624 123.461 28.1453 123.37 28.1458 123.278L28.1458 25.0596C28.158 24.8816 28.2344 24.7151 28.3599 24.5935C28.4851 24.4719 28.6497 24.4043 28.8208 24.4043C28.9919 24.4043 29.1567 24.4719 29.282 24.5935C29.4072 24.7151 29.4836 24.8816 29.4958 25.0596L29.4958 122.59L35.9292 122.59C36.022 122.583 36.1152 122.596 36.2029 122.628C36.2905 122.66 36.3708 122.711 36.439 122.777C36.5071 122.843 36.5613 122.923 36.5984 123.012C36.6355 123.101 36.6548 123.197 36.6548 123.294C36.6548 123.391 36.6355 123.487 36.5984 123.576C36.5613 123.665 36.5071 123.745 36.439 123.811C36.3708 123.877 36.2905 123.927 36.2029 123.96C36.1152 123.992 36.022 124.005 35.9292 123.998L35.9292 123.98Z" fill="#FFFFFF" fill-opacity="1.000000" fill-rule="nonzero"/>
	<path id="Vector" d="M28.7615 86.4043C28.5759 86.4026 28.3982 86.3296 28.2649 86.2L16.5693 74.4163C16.438 74.2839 16.3643 74.1047 16.3643 73.9177C16.3643 73.731 16.438 73.5515 16.5693 73.4194C16.7004 73.2871 16.8784 73.2129 17.0642 73.2129C17.2498 73.2129 17.4277 73.2871 17.5588 73.4194L29.2581 85.1995C29.3845 85.3347 29.4551 85.5137 29.4551 85.6997C29.4551 85.8855 29.3845 86.0645 29.2581 86.2C29.1248 86.3296 28.9468 86.4026 28.7615 86.4043Z" fill="#FFFFFF" fill-opacity="1.000000" fill-rule="nonzero"/>
	<path id="Vector" d="M28.7275 62.6597C28.6318 62.6599 28.5371 62.6411 28.4487 62.604C28.3604 62.5669 28.2803 62.5125 28.2129 62.4441L19.8506 54.0164C19.7832 53.9485 19.7295 53.8679 19.6929 53.7793C19.656 53.6904 19.6372 53.5955 19.637 53.4993C19.6367 53.4033 19.6553 53.3081 19.6917 53.2192C19.728 53.1304 19.7815 53.0496 19.8489 52.9814C19.9163 52.9133 19.9961 52.8594 20.0842 52.8223C20.1724 52.7854 20.2666 52.7664 20.3621 52.7661C20.4575 52.7659 20.552 52.7847 20.6401 52.8213C20.7285 52.8579 20.8086 52.9116 20.8762 52.9795L29.2422 61.4033C29.3438 61.5061 29.4131 61.6367 29.4412 61.7788C29.469 61.9211 29.4546 62.0686 29.3997 62.2026C29.3445 62.3364 29.2512 62.4512 29.1318 62.5317C29.0122 62.6125 28.8716 62.6558 28.7275 62.656L28.7275 62.6597Z" fill="#FFFFFF" fill-opacity="1.000000" fill-rule="nonzero"/>
	<path id="Vector" d="M28.7314 41.5386C28.5405 41.5381 28.3577 41.4617 28.2229 41.3257L24.3762 37.4485C24.2651 37.3096 24.209 37.134 24.2192 36.9561C24.2292 36.7783 24.3047 36.6104 24.4307 36.4851C24.5569 36.3596 24.7246 36.2859 24.9019 36.2776C25.0789 36.2695 25.2529 36.3276 25.3899 36.4407L29.2476 40.322C29.3469 40.4233 29.4141 40.552 29.4412 40.6917C29.468 40.8313 29.4536 40.9756 29.3992 41.1072C29.345 41.2385 29.2534 41.3508 29.136 41.4302C29.0186 41.5095 28.8804 41.5525 28.739 41.5535L28.7314 41.5386Z" fill="#FFFFFF" fill-opacity="1.000000" fill-rule="nonzero"/>
	<path id="Vector" d="M71.3179 106.85L35.3877 106.85C35.2798 106.85 35.1731 106.825 35.0764 106.776C34.9797 106.727 34.8958 106.657 34.8311 106.57C34.7661 106.483 34.7222 106.382 34.7029 106.275C34.6833 106.168 34.689 106.058 34.719 105.953L52.6768 44.644C52.7305 44.5103 52.8225 44.3955 52.9414 44.3147C53.0603 44.2341 53.2004 44.1909 53.3438 44.1909C53.4873 44.1909 53.6274 44.2341 53.7463 44.3147C53.8652 44.3955 53.9573 44.5103 54.011 44.644L71.9724 105.953C72.0024 106.058 72.0081 106.168 71.9885 106.275C71.9692 106.382 71.9253 106.483 71.8604 106.57C71.7957 106.657 71.7114 106.727 71.6147 106.776C71.5181 106.825 71.4116 106.85 71.3035 106.85L71.3179 106.85ZM36.3335 105.45L70.3865 105.45L53.3672 47.3215L36.3335 105.45Z" fill="#FFFFFF" fill-opacity="1.000000" fill-rule="nonzero"/>
	<path id="Vector" d="M59.5005 123.998L53.6868 123.998C53.5994 123.998 53.5129 123.98 53.4321 123.946C53.3511 123.911 53.2776 123.859 53.2158 123.794C53.1538 123.729 53.1047 123.652 53.071 123.567C53.0376 123.482 53.0203 123.391 53.0203 123.298L53.0203 60.7744C53.0137 60.6782 53.0261 60.5815 53.0564 60.4905C53.0869 60.3994 53.1348 60.3157 53.1973 60.2451C53.2595 60.1743 53.335 60.1179 53.4189 60.0793C53.5029 60.0408 53.5935 60.021 53.6851 60.021C53.7766 60.021 53.8672 60.0408 53.9512 60.0793C54.0352 60.1179 54.1108 60.1743 54.1731 60.2451C54.2356 60.3157 54.2834 60.3994 54.3137 60.4905C54.3442 60.5815 54.3567 60.6782 54.3501 60.7744L54.3501 122.595L59.5039 122.595C59.5955 122.588 59.687 122.601 59.7734 122.633C59.8599 122.666 59.939 122.716 60.0059 122.782C60.073 122.848 60.1265 122.927 60.1631 123.016C60.1995 123.104 60.2185 123.2 60.2185 123.297C60.2185 123.393 60.1995 123.489 60.1631 123.577C60.1265 123.666 60.073 123.745 60.0059 123.811C59.939 123.877 59.8599 123.927 59.7734 123.96C59.687 123.992 59.5955 124.005 59.5039 123.998L59.5005 123.998Z" fill="#FFFFFF" fill-opacity="1.000000" fill-rule="nonzero"/>
	<path id="Vector" d="M53.6023 99.5955C53.5071 99.5957 53.4131 99.5781 53.3252 99.5439C53.2375 99.5098 53.158 99.4597 53.0911 99.3965L45.3721 92.1711C45.2371 92.0449 45.1611 91.8735 45.1611 91.6948C45.1611 91.5161 45.2371 91.3447 45.3721 91.2183C45.5071 91.092 45.6902 91.021 45.8813 91.021C46.0723 91.021 46.2556 91.092 46.3906 91.2183L54.1133 98.4402C54.2144 98.5349 54.283 98.6553 54.3108 98.7866C54.3386 98.9177 54.3242 99.0537 54.2695 99.1772C54.2148 99.3008 54.1223 99.4065 54.0037 99.481C53.8848 99.5554 53.7451 99.5952 53.6023 99.5955Z" fill="#FFFFFF" fill-opacity="1.000000" fill-rule="nonzero"/>
	<path id="Vector" d="M53.6287 84.4258C53.5366 84.426 53.4451 84.4077 53.3601 84.3721C53.2749 84.3364 53.1975 84.2839 53.1328 84.218L47.9622 79.0115C47.8413 78.8767 47.7766 78.7007 47.7812 78.5193C47.7859 78.3381 47.8594 78.1655 47.9868 78.0374C48.114 77.9089 48.2854 77.835 48.4656 77.8303C48.6455 77.8257 48.8206 77.8909 48.9541 78.0125L54.1248 83.2227C54.2217 83.3218 54.2871 83.4473 54.3135 83.5837C54.3398 83.7202 54.3257 83.8613 54.2727 83.9897C54.2197 84.1182 54.1304 84.2278 54.0159 84.3054C53.9014 84.3831 53.7668 84.4248 53.6287 84.4258Z" fill="#FFFFFF" fill-opacity="1.000000" fill-rule="nonzero"/>
	<path id="Vector" d="M53.5688 70.5679C53.47 70.5684 53.3721 70.552 53.2805 70.5198C53.1892 70.4873 53.106 70.4397 53.0359 70.3796L49.9238 67.6902C49.8013 67.5647 49.738 67.4041 49.7466 67.24C49.7551 67.0762 49.8347 66.9211 49.9697 66.8057C50.1047 66.6904 50.2852 66.623 50.4749 66.6177C50.6646 66.6121 50.8499 66.6685 50.9937 66.7756L54.1057 69.4651C54.2114 69.5559 54.2837 69.6719 54.313 69.7981C54.3423 69.9246 54.3274 70.0557 54.2703 70.1746C54.2131 70.2935 54.1162 70.3953 53.9919 70.4663C53.8677 70.5376 53.7217 70.5754 53.5728 70.5747L53.5688 70.5679Z" fill="#FFFFFF" fill-opacity="1.000000" fill-rule="nonzero"/>
	<path id="Vector" d="M28.8105 49.4683C28.679 49.468 28.5505 49.4246 28.4412 49.3433C28.3318 49.2622 28.2466 49.147 28.1963 49.0125C28.146 48.8777 28.1328 48.7295 28.1584 48.5864C28.1841 48.4436 28.2473 48.312 28.3401 48.209L33.5789 42.4031C33.7056 42.2764 33.8713 42.2083 34.042 42.2131C34.2129 42.218 34.3752 42.2952 34.4961 42.429C34.6167 42.563 34.6865 42.7429 34.6909 42.9321C34.6953 43.1213 34.6338 43.3052 34.5195 43.4456L29.2808 49.24C29.2202 49.3108 29.1475 49.3677 29.0667 49.407C28.9858 49.446 28.8987 49.467 28.8105 49.4683Z" fill="#FFFFFF" fill-opacity="1.000000" fill-rule="nonzero"/>
	<path id="Vector" d="M28.8369 75.1919C28.7002 75.1917 28.5664 75.1504 28.4529 75.0737C28.3394 74.9971 28.2507 74.8882 28.1985 74.7607C28.146 74.6333 28.1323 74.4934 28.1589 74.3582C28.1855 74.2229 28.2512 74.0986 28.3479 74.001L36.8074 65.4783C36.939 65.3584 37.1116 65.2939 37.2891 65.2986C37.4666 65.3032 37.6355 65.3762 37.761 65.5027C37.8865 65.6294 37.959 65.7996 37.9636 65.9785C37.968 66.1572 37.9043 66.3311 37.7854 66.4639L29.3403 74.9868C29.2744 75.0532 29.1958 75.1057 29.1094 75.1411C29.0229 75.1763 28.9302 75.1936 28.8369 75.1919Z" fill="#FFFFFF" fill-opacity="1.000000" fill-rule="nonzero"/>
	<path id="Vector" d="M53.6694 75.8508C53.5408 75.8506 53.4148 75.812 53.3079 75.7397C53.2007 75.6675 53.1174 75.5649 53.0681 75.4451C53.0188 75.3252 53.0059 75.1931 53.031 75.0659C53.0562 74.9385 53.1179 74.8215 53.209 74.7295L56.4897 71.4265C56.6113 71.3035 56.7766 71.2341 56.949 71.2339C57.1213 71.2336 57.2869 71.3022 57.4092 71.425C57.5312 71.5476 57.6001 71.7141 57.6003 71.8879C57.6006 72.0615 57.5325 72.2283 57.4106 72.3516L54.1233 75.6477C54.0044 75.7729 53.8413 75.8462 53.6694 75.8508Z" fill="#FFFFFF" fill-opacity="1.000000" fill-rule="nonzero"/>
	<path id="Vector" d="M53.7224 92.3403C53.5833 92.3394 53.4473 92.2971 53.3318 92.219C53.2163 92.1406 53.1262 92.0298 53.0728 91.9004C53.0193 91.7708 53.0051 91.6284 53.0315 91.4907C53.0581 91.353 53.1243 91.2263 53.2219 91.1265L58.3804 85.9285C58.5151 85.8059 58.6917 85.7402 58.8733 85.7449C59.0549 85.7495 59.2278 85.8242 59.3564 85.9536C59.4849 86.083 59.5591 86.2571 59.5637 86.4399C59.5684 86.623 59.5029 86.8008 59.3813 86.9365L54.2229 92.1306C54.0903 92.2646 53.9102 92.3401 53.7224 92.3403Z" fill="#FFFFFF" fill-opacity="1.000000" fill-rule="nonzero"/>
</svg>
