<svg width="112.000000" height="124.000000" viewBox="0 0 112 124" fill="none" xmlns="http://www.w3.org/2000/svg" xmlns:xlink="http://www.w3.org/1999/xlink">
	<desc>
			Created with Pixso.
	</desc>
	<defs/>
	<path id="Vector" d="M110.976 124L0.980957 124C0.792358 123.999 0.608154 123.944 0.450195 123.842C0.292358 123.739 0.16748 123.593 0.0906982 123.422C0.0140381 123.25 -0.0114746 123.061 0.0174561 122.875C0.0463867 122.69 0.128418 122.517 0.253784 122.377L110.249 0.352295C110.381 0.205566 110.554 0.102051 110.746 0.0556641C110.938 0.00927734 111.14 0.0219727 111.324 0.0925293C111.509 0.162842 111.668 0.287109 111.78 0.449463C111.892 0.611572 111.951 0.803955 111.951 1.00049L111.951 123.025C111.951 123.153 111.927 123.279 111.878 123.398C111.829 123.516 111.758 123.623 111.667 123.714C111.576 123.805 111.469 123.876 111.35 123.926C111.232 123.975 111.104 124 110.976 124ZM3.16724 122.05L109.997 122.05L109.997 3.54321L3.16724 122.05Z" fill="#FFFFFF" fill-opacity="1.000000" fill-rule="nonzero"/>
	<path id="Vector" d="M0.979614 124C0.719849 124 0.470581 123.897 0.286865 123.714C0.103271 123.531 0 123.284 0 123.025L0 51.4456C0.000244141 51.2593 0.0541992 51.0771 0.155273 50.9204C0.256348 50.7637 0.400513 50.6389 0.570557 50.5613L110.566 0.111328C110.683 0.0500488 110.812 0.0131836 110.945 0.00292969C111.078 -0.00732422 111.211 0.00952148 111.336 0.052002C111.462 0.0947266 111.578 0.162354 111.677 0.250977C111.775 0.3396 111.855 0.447021 111.91 0.567139C111.966 0.687256 111.996 0.817627 112 0.949707C112.003 1.08179 111.979 1.21338 111.93 1.33618C111.881 1.45898 111.807 1.57056 111.713 1.66406C111.619 1.75757 111.507 1.83105 111.384 1.88013L1.9541 52.0637L1.9541 123.02C1.95544 123.148 1.93127 123.275 1.88281 123.394C1.83447 123.513 1.76294 123.621 1.67224 123.712C1.58167 123.803 1.47375 123.876 1.35486 123.925C1.23596 123.975 1.1084 124 0.979614 124Z" fill="#FFFFFF" fill-opacity="1.000000" fill-rule="nonzero"/>
	<path id="Vector" d="M106.164 117.618L14.3966 117.618C14.2086 117.617 14.0249 117.562 13.8672 117.461C13.7095 117.359 13.5846 117.214 13.5074 117.043C13.4302 116.873 13.4039 116.684 13.4319 116.499C13.4597 116.314 13.5405 116.14 13.6646 116L105.427 13.1152C105.558 12.9678 105.732 12.8635 105.924 12.8164C106.117 12.7693 106.319 12.7812 106.505 12.8508C106.69 12.9207 106.85 13.0447 106.963 13.2068C107.076 13.3689 107.137 13.561 107.138 13.7585L107.138 116.643C107.138 116.901 107.036 117.148 106.853 117.331C106.671 117.513 106.423 117.617 106.164 117.618ZM16.578 115.683L105.189 115.683L105.189 16.3213L16.578 115.683Z" fill="#FFFFFF" fill-opacity="1.000000" fill-rule="nonzero"/>
	<path id="Vector" d="M82.1073 116.252C81.9734 116.252 81.8451 116.199 81.7504 116.104C81.6556 116.01 81.6024 115.882 81.6024 115.749L81.6024 42.6772C81.6024 42.5439 81.6556 42.4163 81.7504 42.322C81.8451 42.2278 81.9734 42.1748 82.1073 42.1748L106.445 42.1748C106.554 42.2021 106.651 42.2646 106.721 42.353C106.79 42.4414 106.827 42.5503 106.827 42.6621C106.827 42.7742 106.79 42.8831 106.721 42.9714C106.651 43.0596 106.554 43.1223 106.445 43.1497L82.5972 43.1497L82.5972 115.749C82.5972 115.88 82.5461 116.005 82.4547 116.099C82.3633 116.193 82.2386 116.248 82.1073 116.252Z" fill="#FFFFFF" fill-opacity="1.000000" fill-rule="nonzero"/>
	<path id="Vector" d="M50.5087 115.824C50.3748 115.824 50.2463 115.771 50.1516 115.677C50.057 115.582 50.0038 115.455 50.0038 115.321L50.0038 76.6548C50.0038 76.5215 50.057 76.3936 50.1516 76.2993C50.2463 76.2051 50.3748 76.1523 50.5087 76.1523L106.446 76.1523C106.555 76.1797 106.652 76.2422 106.721 76.3306C106.79 76.4189 106.828 76.5278 106.828 76.6396C106.828 76.7517 106.79 76.8606 106.721 76.949C106.652 77.0371 106.555 77.0999 106.446 77.1272L50.9985 77.1272L50.9985 115.316C50.9999 115.448 50.9493 115.575 50.8578 115.67C50.7662 115.764 50.6409 115.82 50.5087 115.824Z" fill="#FFFFFF" fill-opacity="1.000000" fill-rule="nonzero"/>
</svg>
